<svg xmlns="http://www.w3.org/2000/svg" xmlns:xlink="http://www.w3.org/1999/xlink" width="185" zoomAndPan="magnify" viewBox="0 0 138.75 167.249994" height="223" preserveAspectRatio="xMidYMid meet" version="1.0"><defs><clipPath id="3793f7f91c"><path d="M 128 67 L 138.316406 67 L 138.316406 137 L 128 137 Z M 128 67 " clip-rule="nonzero"/></clipPath><clipPath id="d4c2d88fb1"><path d="M 130 70 L 138.316406 70 L 138.316406 73 L 130 73 Z M 130 70 " clip-rule="nonzero"/></clipPath><clipPath id="331e3ba0ad"><path d="M 130 74 L 138.316406 74 L 138.316406 77 L 130 77 Z M 130 74 " clip-rule="nonzero"/></clipPath><clipPath id="1416810457"><path d="M 130 78 L 138.316406 78 L 138.316406 81 L 130 81 Z M 130 78 " clip-rule="nonzero"/></clipPath><clipPath id="acf59255b2"><path d="M 130 82 L 138.316406 82 L 138.316406 85 L 130 85 Z M 130 82 " clip-rule="nonzero"/></clipPath><clipPath id="a7319299de"><path d="M 130 86 L 138.316406 86 L 138.316406 89 L 130 89 Z M 130 86 " clip-rule="nonzero"/></clipPath><clipPath id="6906445d76"><path d="M 130 90 L 138.316406 90 L 138.316406 93 L 130 93 Z M 130 90 " clip-rule="nonzero"/></clipPath><clipPath id="317f037502"><path d="M 130 94 L 138.316406 94 L 138.316406 96 L 130 96 Z M 130 94 " clip-rule="nonzero"/></clipPath><clipPath id="63c09d7d90"><path d="M 130 97 L 138.316406 97 L 138.316406 100 L 130 100 Z M 130 97 " clip-rule="nonzero"/></clipPath><clipPath id="292bbdcfc9"><path d="M 130 102 L 138.316406 102 L 138.316406 105 L 130 105 Z M 130 102 " clip-rule="nonzero"/></clipPath><clipPath id="e2092ad8c3"><path d="M 130 106 L 138.316406 106 L 138.316406 109 L 130 109 Z M 130 106 " clip-rule="nonzero"/></clipPath><clipPath id="4fa2eeaee1"><path d="M 130 109 L 138.316406 109 L 138.316406 112 L 130 112 Z M 130 109 " clip-rule="nonzero"/></clipPath><clipPath id="fabff8491f"><path d="M 130 113 L 138.316406 113 L 138.316406 116 L 130 116 Z M 130 113 " clip-rule="nonzero"/></clipPath><clipPath id="cdf40b1b71"><path d="M 130 117 L 138.316406 117 L 138.316406 120 L 130 120 Z M 130 117 " clip-rule="nonzero"/></clipPath><clipPath id="f91af14018"><path d="M 130 121 L 138.316406 121 L 138.316406 124 L 130 124 Z M 130 121 " clip-rule="nonzero"/></clipPath><clipPath id="8a7030391c"><path d="M 130 125 L 138.316406 125 L 138.316406 128 L 130 128 Z M 130 125 " clip-rule="nonzero"/></clipPath><clipPath id="8b42589c20"><path d="M 130 129 L 138.316406 129 L 138.316406 132 L 130 132 Z M 130 129 " clip-rule="nonzero"/></clipPath><clipPath id="0a191b9059"><path d="M 77 7.042969 L 99 7.042969 L 99 20 L 77 20 Z M 77 7.042969 " clip-rule="nonzero"/></clipPath><clipPath id="0ec6a48a0f"><path d="M 2.179688 119.445312 L 138.316406 119.445312 L 138.316406 160 L 2.179688 160 Z M 2.179688 119.445312 " clip-rule="nonzero"/></clipPath><clipPath id="a623e711a3"><path d="M 136 156 L 138.316406 156 L 138.316406 157 L 136 157 Z M 136 156 " clip-rule="nonzero"/></clipPath><clipPath id="fb385629ea"><path d="M 107 34 L 138.316406 34 L 138.316406 55 L 107 55 Z M 107 34 " clip-rule="nonzero"/></clipPath><clipPath id="3041943ece"><path d="M 54 139 L 57 139 L 57 166.503906 L 54 166.503906 Z M 54 139 " clip-rule="nonzero"/></clipPath><clipPath id="72da0a657b"><path d="M 35.890625 48.945312 L 40.371094 48.945312 L 40.371094 54.917969 L 35.890625 54.917969 Z M 35.890625 48.945312 " clip-rule="nonzero"/></clipPath><clipPath id="cfe56def16"><path d="M 37 49 L 40.371094 49 L 40.371094 54.917969 L 37 54.917969 Z M 37 49 " clip-rule="nonzero"/></clipPath><clipPath id="cc6b5001f3"><path d="M 70.871094 79.320312 L 74.601562 79.320312 L 74.601562 84.546875 L 70.871094 84.546875 Z M 70.871094 79.320312 " clip-rule="nonzero"/></clipPath><clipPath id="187dcf23dc"><path d="M 71 79.320312 L 74.601562 79.320312 L 74.601562 83 L 71 83 Z M 71 79.320312 " clip-rule="nonzero"/></clipPath><clipPath id="5aa2f9d11f"><path d="M 118.1875 121.191406 L 121.171875 121.191406 L 121.171875 124.921875 L 118.1875 124.921875 Z M 118.1875 121.191406 " clip-rule="nonzero"/></clipPath><clipPath id="7491f56da6"><path d="M 118.1875 122 L 121 122 L 121 124 L 118.1875 124 Z M 118.1875 122 " clip-rule="nonzero"/></clipPath></defs><path fill="#c1b99f" d="M 101.605469 109.695312 L 111.535156 109.695312 L 111.535156 72.890625 L 101.605469 72.890625 L 101.605469 109.695312 " fill-opacity="1" fill-rule="nonzero"/><path fill="#d8d2ba" d="M 121.667969 125.011719 L 108.730469 125.011719 L 108.730469 80.453125 L 121.667969 80.453125 L 121.667969 125.011719 " fill-opacity="1" fill-rule="nonzero"/><path fill="#c1b99f" d="M 68.75 103.570312 L 55.5625 103.570312 L 55.5625 49.199219 L 68.75 49.199219 L 68.75 103.570312 " fill-opacity="1" fill-rule="nonzero"/><path fill="#938a67" d="M 30.027344 140.207031 L 18.363281 140.207031 L 18.363281 82.339844 L 30.027344 82.339844 L 30.027344 140.207031 " fill-opacity="1" fill-rule="nonzero"/><path fill="#afbc35" d="M 25.121094 126.253906 C 25.121094 128.335938 23.429688 130.023438 21.34375 130.023438 L 16.003906 130.023438 C 13.917969 130.023438 12.230469 128.335938 12.230469 126.253906 L 12.230469 115.042969 C 12.230469 112.960938 13.917969 111.273438 16.003906 111.273438 L 21.34375 111.273438 C 23.429688 111.273438 25.121094 112.960938 25.121094 115.042969 L 25.121094 126.253906 " fill-opacity="1" fill-rule="nonzero"/><path fill="#828c1c" d="M 17.566406 114.707031 C 19.011719 116.148438 18.628906 118.863281 18.628906 118.863281 C 18.628906 118.863281 15.910156 119.242188 14.46875 117.804688 C 13.027344 116.363281 13.410156 113.648438 13.410156 113.648438 C 13.410156 113.648438 16.125 113.265625 17.566406 114.707031 " fill-opacity="1" fill-rule="nonzero"/><path fill="#828c1c" d="M 17.566406 124.070312 C 19.011719 125.511719 18.628906 128.226562 18.628906 128.226562 C 18.628906 128.226562 15.910156 128.605469 14.46875 127.167969 C 13.027344 125.726562 13.410156 123.011719 13.410156 123.011719 C 13.410156 123.011719 16.125 122.628906 17.566406 124.070312 " fill-opacity="1" fill-rule="nonzero"/><path fill="#828c1c" d="M 19.78125 119.484375 C 18.339844 120.925781 18.71875 123.640625 18.71875 123.640625 C 18.71875 123.640625 21.4375 124.023438 22.878906 122.582031 C 24.320312 121.140625 23.941406 118.425781 23.941406 118.425781 C 23.941406 118.425781 21.222656 118.046875 19.78125 119.484375 " fill-opacity="1" fill-rule="nonzero"/><path fill="#b71a09" d="M 19.566406 136.417969 L 17.78125 136.417969 L 17.78125 116.8125 L 19.566406 116.8125 L 19.566406 136.417969 " fill-opacity="1" fill-rule="nonzero"/><g clip-path="url(#3793f7f91c)"><path fill="#8e1070" d="M 146.597656 67.671875 L 128.640625 67.671875 L 128.640625 136.5 L 146.597656 136.5 L 146.597656 67.671875 " fill-opacity="1" fill-rule="nonzero"/></g><g clip-path="url(#d4c2d88fb1)"><path fill="#ffffff" d="M 144.40625 72.285156 L 130.773438 72.285156 L 130.773438 70.3125 L 144.40625 70.3125 L 144.40625 72.285156 " fill-opacity="1" fill-rule="nonzero"/></g><g clip-path="url(#331e3ba0ad)"><path fill="#ffffff" d="M 144.40625 76.234375 L 130.773438 76.234375 L 130.773438 74.261719 L 144.40625 74.261719 L 144.40625 76.234375 " fill-opacity="1" fill-rule="nonzero"/></g><g clip-path="url(#1416810457)"><path fill="#ffffff" d="M 144.40625 80.1875 L 130.773438 80.1875 L 130.773438 78.210938 L 144.40625 78.210938 L 144.40625 80.1875 " fill-opacity="1" fill-rule="nonzero"/></g><g clip-path="url(#acf59255b2)"><path fill="#ffffff" d="M 144.40625 84.132812 L 130.773438 84.132812 L 130.773438 82.160156 L 144.40625 82.160156 L 144.40625 84.132812 " fill-opacity="1" fill-rule="nonzero"/></g><g clip-path="url(#a7319299de)"><path fill="#ffffff" d="M 144.40625 88.085938 L 130.773438 88.085938 L 130.773438 86.109375 L 144.40625 86.109375 L 144.40625 88.085938 " fill-opacity="1" fill-rule="nonzero"/></g><g clip-path="url(#6906445d76)"><path fill="#ffffff" d="M 144.40625 92.035156 L 130.773438 92.035156 L 130.773438 90.058594 L 144.40625 90.058594 L 144.40625 92.035156 " fill-opacity="1" fill-rule="nonzero"/></g><g clip-path="url(#317f037502)"><path fill="#ffffff" d="M 144.40625 95.984375 L 130.773438 95.984375 L 130.773438 94.007812 L 144.40625 94.007812 L 144.40625 95.984375 " fill-opacity="1" fill-rule="nonzero"/></g><g clip-path="url(#63c09d7d90)"><path fill="#ffffff" d="M 144.40625 99.933594 L 130.773438 99.933594 L 130.773438 97.957031 L 144.40625 97.957031 L 144.40625 99.933594 " fill-opacity="1" fill-rule="nonzero"/></g><g clip-path="url(#292bbdcfc9)"><path fill="#ffffff" d="M 144.40625 104.058594 L 130.773438 104.058594 L 130.773438 102.085938 L 144.40625 102.085938 L 144.40625 104.058594 " fill-opacity="1" fill-rule="nonzero"/></g><g clip-path="url(#e2092ad8c3)"><path fill="#ffffff" d="M 144.40625 108.007812 L 130.773438 108.007812 L 130.773438 106.035156 L 144.40625 106.035156 L 144.40625 108.007812 " fill-opacity="1" fill-rule="nonzero"/></g><g clip-path="url(#4fa2eeaee1)"><path fill="#ffffff" d="M 144.40625 111.957031 L 130.773438 111.957031 L 130.773438 109.984375 L 144.40625 109.984375 L 144.40625 111.957031 " fill-opacity="1" fill-rule="nonzero"/></g><g clip-path="url(#fabff8491f)"><path fill="#ffffff" d="M 144.40625 115.910156 L 130.773438 115.910156 L 130.773438 113.933594 L 144.40625 113.933594 L 144.40625 115.910156 " fill-opacity="1" fill-rule="nonzero"/></g><g clip-path="url(#cdf40b1b71)"><path fill="#ffffff" d="M 144.40625 119.859375 L 130.773438 119.859375 L 130.773438 117.882812 L 144.40625 117.882812 L 144.40625 119.859375 " fill-opacity="1" fill-rule="nonzero"/></g><g clip-path="url(#f91af14018)"><path fill="#ffffff" d="M 144.40625 123.808594 L 130.773438 123.808594 L 130.773438 121.832031 L 144.40625 121.832031 L 144.40625 123.808594 " fill-opacity="1" fill-rule="nonzero"/></g><g clip-path="url(#8a7030391c)"><path fill="#ffffff" d="M 144.40625 127.757812 L 130.773438 127.757812 L 130.773438 125.78125 L 144.40625 125.78125 L 144.40625 127.757812 " fill-opacity="1" fill-rule="nonzero"/></g><g clip-path="url(#8b42589c20)"><path fill="#ffffff" d="M 144.40625 131.707031 L 130.773438 131.707031 L 130.773438 129.730469 L 144.40625 129.730469 L 144.40625 131.707031 " fill-opacity="1" fill-rule="nonzero"/></g><path fill="#afbc35" d="M 117.101562 100.71875 L 97.136719 100.71875 L 97.136719 136.457031 L 117.101562 136.457031 L 117.101562 100.71875 " fill-opacity="1" fill-rule="nonzero"/><path fill="#828c1c" d="M 119.808594 103.761719 L 94.429688 103.761719 L 96.71875 97.011719 L 117.519531 97.011719 L 119.808594 103.761719 " fill-opacity="1" fill-rule="nonzero"/><path fill="#eb3118" d="M 99.183594 68.488281 L 71.902344 68.488281 L 71.902344 111.753906 L 99.183594 111.753906 L 99.183594 68.488281 " fill-opacity="1" fill-rule="nonzero"/><path fill="#b71a09" d="M 95.1875 64.804688 L 75.898438 64.804688 L 75.898438 68.488281 L 95.1875 68.488281 L 95.1875 64.804688 " fill-opacity="1" fill-rule="nonzero"/><path fill="#eb3118" d="M 86.402344 43.941406 L 84.683594 43.941406 L 83.207031 64.804688 L 87.878906 64.804688 L 86.402344 43.941406 " fill-opacity="1" fill-rule="nonzero"/><path fill="#231f20" d="M 76.726562 73.382812 L 74.210938 73.382812 L 74.210938 70.867188 L 76.726562 70.867188 L 76.726562 73.382812 " fill-opacity="1" fill-rule="nonzero"/><path fill="#231f20" d="M 81.765625 73.382812 L 79.246094 73.382812 L 79.246094 70.867188 L 81.765625 70.867188 L 81.765625 73.382812 " fill-opacity="1" fill-rule="nonzero"/><path fill="#231f20" d="M 86.800781 73.382812 L 84.285156 73.382812 L 84.285156 70.867188 L 86.800781 70.867188 L 86.800781 73.382812 " fill-opacity="1" fill-rule="nonzero"/><path fill="#231f20" d="M 91.839844 73.382812 L 89.320312 73.382812 L 89.320312 70.867188 L 91.839844 70.867188 L 91.839844 73.382812 " fill-opacity="1" fill-rule="nonzero"/><path fill="#231f20" d="M 96.875 73.382812 L 94.359375 73.382812 L 94.359375 70.867188 L 96.875 70.867188 L 96.875 73.382812 " fill-opacity="1" fill-rule="nonzero"/><path fill="#231f20" d="M 76.726562 78.414062 L 74.210938 78.414062 L 74.210938 75.898438 L 76.726562 75.898438 L 76.726562 78.414062 " fill-opacity="1" fill-rule="nonzero"/><path fill="#231f20" d="M 81.765625 78.414062 L 79.246094 78.414062 L 79.246094 75.898438 L 81.765625 75.898438 L 81.765625 78.414062 " fill-opacity="1" fill-rule="nonzero"/><path fill="#231f20" d="M 86.800781 78.414062 L 84.285156 78.414062 L 84.285156 75.898438 L 86.800781 75.898438 L 86.800781 78.414062 " fill-opacity="1" fill-rule="nonzero"/><path fill="#231f20" d="M 91.839844 78.414062 L 89.320312 78.414062 L 89.320312 75.898438 L 91.839844 75.898438 L 91.839844 78.414062 " fill-opacity="1" fill-rule="nonzero"/><path fill="#231f20" d="M 96.875 78.414062 L 94.359375 78.414062 L 94.359375 75.898438 L 96.875 75.898438 L 96.875 78.414062 " fill-opacity="1" fill-rule="nonzero"/><path fill="#231f20" d="M 76.726562 83.445312 L 74.210938 83.445312 L 74.210938 80.929688 L 76.726562 80.929688 L 76.726562 83.445312 " fill-opacity="1" fill-rule="nonzero"/><path fill="#231f20" d="M 81.765625 83.445312 L 79.246094 83.445312 L 79.246094 80.929688 L 81.765625 80.929688 L 81.765625 83.445312 " fill-opacity="1" fill-rule="nonzero"/><path fill="#231f20" d="M 86.800781 83.445312 L 84.285156 83.445312 L 84.285156 80.929688 L 86.800781 80.929688 L 86.800781 83.445312 " fill-opacity="1" fill-rule="nonzero"/><path fill="#231f20" d="M 91.839844 83.445312 L 89.320312 83.445312 L 89.320312 80.929688 L 91.839844 80.929688 L 91.839844 83.445312 " fill-opacity="1" fill-rule="nonzero"/><path fill="#231f20" d="M 96.875 83.445312 L 94.359375 83.445312 L 94.359375 80.929688 L 96.875 80.929688 L 96.875 83.445312 " fill-opacity="1" fill-rule="nonzero"/><path fill="#231f20" d="M 76.726562 88.476562 L 74.210938 88.476562 L 74.210938 85.960938 L 76.726562 85.960938 L 76.726562 88.476562 " fill-opacity="1" fill-rule="nonzero"/><path fill="#231f20" d="M 81.765625 88.476562 L 79.246094 88.476562 L 79.246094 85.960938 L 81.765625 85.960938 L 81.765625 88.476562 " fill-opacity="1" fill-rule="nonzero"/><path fill="#231f20" d="M 86.800781 88.476562 L 84.285156 88.476562 L 84.285156 85.960938 L 86.800781 85.960938 L 86.800781 88.476562 " fill-opacity="1" fill-rule="nonzero"/><path fill="#231f20" d="M 91.839844 88.476562 L 89.320312 88.476562 L 89.320312 85.960938 L 91.839844 85.960938 L 91.839844 88.476562 " fill-opacity="1" fill-rule="nonzero"/><path fill="#231f20" d="M 96.875 88.476562 L 94.359375 88.476562 L 94.359375 85.960938 L 96.875 85.960938 L 96.875 88.476562 " fill-opacity="1" fill-rule="nonzero"/><path fill="#231f20" d="M 76.726562 93.507812 L 74.210938 93.507812 L 74.210938 90.992188 L 76.726562 90.992188 L 76.726562 93.507812 " fill-opacity="1" fill-rule="nonzero"/><path fill="#231f20" d="M 81.765625 93.507812 L 79.246094 93.507812 L 79.246094 90.992188 L 81.765625 90.992188 L 81.765625 93.507812 " fill-opacity="1" fill-rule="nonzero"/><path fill="#231f20" d="M 86.800781 93.507812 L 84.285156 93.507812 L 84.285156 90.992188 L 86.800781 90.992188 L 86.800781 93.507812 " fill-opacity="1" fill-rule="nonzero"/><path fill="#231f20" d="M 91.839844 93.507812 L 89.320312 93.507812 L 89.320312 90.992188 L 91.839844 90.992188 L 91.839844 93.507812 " fill-opacity="1" fill-rule="nonzero"/><path fill="#231f20" d="M 96.875 93.507812 L 94.359375 93.507812 L 94.359375 90.992188 L 96.875 90.992188 L 96.875 93.507812 " fill-opacity="1" fill-rule="nonzero"/><path fill="#231f20" d="M 76.726562 98.539062 L 74.210938 98.539062 L 74.210938 96.023438 L 76.726562 96.023438 L 76.726562 98.539062 " fill-opacity="1" fill-rule="nonzero"/><path fill="#231f20" d="M 81.765625 98.539062 L 79.246094 98.539062 L 79.246094 96.023438 L 81.765625 96.023438 L 81.765625 98.539062 " fill-opacity="1" fill-rule="nonzero"/><path fill="#231f20" d="M 86.800781 98.539062 L 84.285156 98.539062 L 84.285156 96.023438 L 86.800781 96.023438 L 86.800781 98.539062 " fill-opacity="1" fill-rule="nonzero"/><path fill="#231f20" d="M 91.839844 98.539062 L 89.320312 98.539062 L 89.320312 96.023438 L 91.839844 96.023438 L 91.839844 98.539062 " fill-opacity="1" fill-rule="nonzero"/><path fill="#231f20" d="M 96.875 98.539062 L 94.359375 98.539062 L 94.359375 96.023438 L 96.875 96.023438 L 96.875 98.539062 " fill-opacity="1" fill-rule="nonzero"/><path fill="#231f20" d="M 76.726562 103.570312 L 74.210938 103.570312 L 74.210938 101.054688 L 76.726562 101.054688 L 76.726562 103.570312 " fill-opacity="1" fill-rule="nonzero"/><path fill="#231f20" d="M 81.765625 103.570312 L 79.246094 103.570312 L 79.246094 101.054688 L 81.765625 101.054688 L 81.765625 103.570312 " fill-opacity="1" fill-rule="nonzero"/><path fill="#231f20" d="M 86.800781 103.570312 L 84.285156 103.570312 L 84.285156 101.054688 L 86.800781 101.054688 L 86.800781 103.570312 " fill-opacity="1" fill-rule="nonzero"/><path fill="#231f20" d="M 91.839844 103.570312 L 89.320312 103.570312 L 89.320312 101.054688 L 91.839844 101.054688 L 91.839844 103.570312 " fill-opacity="1" fill-rule="nonzero"/><path fill="#231f20" d="M 96.875 103.570312 L 94.359375 103.570312 L 94.359375 101.054688 L 96.875 101.054688 L 96.875 103.570312 " fill-opacity="1" fill-rule="nonzero"/><path fill="#231f20" d="M 76.726562 108.601562 L 74.210938 108.601562 L 74.210938 106.085938 L 76.726562 106.085938 L 76.726562 108.601562 " fill-opacity="1" fill-rule="nonzero"/><path fill="#231f20" d="M 81.765625 108.601562 L 79.246094 108.601562 L 79.246094 106.085938 L 81.765625 106.085938 L 81.765625 108.601562 " fill-opacity="1" fill-rule="nonzero"/><path fill="#231f20" d="M 86.800781 108.601562 L 84.285156 108.601562 L 84.285156 106.085938 L 86.800781 106.085938 L 86.800781 108.601562 " fill-opacity="1" fill-rule="nonzero"/><path fill="#231f20" d="M 91.839844 108.601562 L 89.320312 108.601562 L 89.320312 106.085938 L 91.839844 106.085938 L 91.839844 108.601562 " fill-opacity="1" fill-rule="nonzero"/><path fill="#231f20" d="M 96.875 108.601562 L 94.359375 108.601562 L 94.359375 106.085938 L 96.875 106.085938 L 96.875 108.601562 " fill-opacity="1" fill-rule="nonzero"/><path fill="#14b0c4" d="M 49.722656 55.226562 L 28.519531 55.226562 L 28.519531 136.5 L 49.722656 136.5 L 49.722656 55.226562 " fill-opacity="1" fill-rule="nonzero"/><path fill="#231f20" d="M 47.128906 60.675781 L 31.039062 60.675781 L 31.039062 58.34375 L 47.128906 58.34375 L 47.128906 60.675781 " fill-opacity="1" fill-rule="nonzero"/><path fill="#231f20" d="M 47.128906 65.339844 L 31.039062 65.339844 L 31.039062 63.007812 L 47.128906 63.007812 L 47.128906 65.339844 " fill-opacity="1" fill-rule="nonzero"/><path fill="#231f20" d="M 47.128906 70.003906 L 31.039062 70.003906 L 31.039062 67.671875 L 47.128906 67.671875 L 47.128906 70.003906 " fill-opacity="1" fill-rule="nonzero"/><path fill="#231f20" d="M 47.128906 74.667969 L 31.039062 74.667969 L 31.039062 72.335938 L 47.128906 72.335938 L 47.128906 74.667969 " fill-opacity="1" fill-rule="nonzero"/><path fill="#231f20" d="M 47.128906 79.332031 L 31.039062 79.332031 L 31.039062 77 L 47.128906 77 L 47.128906 79.332031 " fill-opacity="1" fill-rule="nonzero"/><path fill="#231f20" d="M 47.128906 83.996094 L 31.039062 83.996094 L 31.039062 81.664062 L 47.128906 81.664062 L 47.128906 83.996094 " fill-opacity="1" fill-rule="nonzero"/><path fill="#231f20" d="M 47.128906 88.660156 L 31.039062 88.660156 L 31.039062 86.328125 L 47.128906 86.328125 L 47.128906 88.660156 " fill-opacity="1" fill-rule="nonzero"/><path fill="#231f20" d="M 47.128906 93.324219 L 31.039062 93.324219 L 31.039062 90.988281 L 47.128906 90.988281 L 47.128906 93.324219 " fill-opacity="1" fill-rule="nonzero"/><path fill="#231f20" d="M 47.128906 98.195312 L 31.039062 98.195312 L 31.039062 95.863281 L 47.128906 95.863281 L 47.128906 98.195312 " fill-opacity="1" fill-rule="nonzero"/><path fill="#231f20" d="M 47.128906 102.859375 L 31.039062 102.859375 L 31.039062 100.527344 L 47.128906 100.527344 L 47.128906 102.859375 " fill-opacity="1" fill-rule="nonzero"/><path fill="#231f20" d="M 47.128906 107.523438 L 31.039062 107.523438 L 31.039062 105.191406 L 47.128906 105.191406 L 47.128906 107.523438 " fill-opacity="1" fill-rule="nonzero"/><path fill="#231f20" d="M 47.128906 112.1875 L 31.039062 112.1875 L 31.039062 109.855469 L 47.128906 109.855469 L 47.128906 112.1875 " fill-opacity="1" fill-rule="nonzero"/><path fill="#231f20" d="M 47.128906 116.847656 L 31.039062 116.847656 L 31.039062 114.515625 L 47.128906 114.515625 L 47.128906 116.847656 " fill-opacity="1" fill-rule="nonzero"/><path fill="#231f20" d="M 47.128906 121.511719 L 31.039062 121.511719 L 31.039062 119.179688 L 47.128906 119.179688 L 47.128906 121.511719 " fill-opacity="1" fill-rule="nonzero"/><path fill="#231f20" d="M 47.128906 126.175781 L 31.039062 126.175781 L 31.039062 123.84375 L 47.128906 123.84375 L 47.128906 126.175781 " fill-opacity="1" fill-rule="nonzero"/><path fill="#231f20" d="M 47.128906 130.839844 L 31.039062 130.839844 L 31.039062 128.507812 L 47.128906 128.507812 L 47.128906 130.839844 " fill-opacity="1" fill-rule="nonzero"/><path fill="#eb3118" d="M 37.550781 73.609375 L 58.902344 73.609375 L 58.902344 136.414062 L 37.550781 136.414062 L 37.550781 73.609375 " fill-opacity="1" fill-rule="nonzero"/><path fill="#ffffff" d="M 42.300781 80.453125 L 40.070312 80.453125 L 40.070312 75.910156 L 42.300781 75.910156 L 42.300781 80.453125 " fill-opacity="1" fill-rule="nonzero"/><path fill="#ffffff" d="M 45.820312 80.453125 L 43.59375 80.453125 L 43.59375 75.910156 L 45.820312 75.910156 L 45.820312 80.453125 " fill-opacity="1" fill-rule="nonzero"/><path fill="#ffffff" d="M 49.339844 80.453125 L 47.113281 80.453125 L 47.113281 75.910156 L 49.339844 75.910156 L 49.339844 80.453125 " fill-opacity="1" fill-rule="nonzero"/><path fill="#ffffff" d="M 52.859375 80.453125 L 50.632812 80.453125 L 50.632812 75.910156 L 52.859375 75.910156 L 52.859375 80.453125 " fill-opacity="1" fill-rule="nonzero"/><path fill="#ffffff" d="M 56.382812 80.453125 L 54.152344 80.453125 L 54.152344 75.910156 L 56.382812 75.910156 L 56.382812 80.453125 " fill-opacity="1" fill-rule="nonzero"/><path fill="#ffffff" d="M 42.300781 84.585938 L 40.070312 84.585938 L 40.070312 82.304688 L 42.300781 82.304688 L 42.300781 84.585938 " fill-opacity="1" fill-rule="nonzero"/><path fill="#ffffff" d="M 45.820312 84.585938 L 43.59375 84.585938 L 43.59375 82.304688 L 45.820312 82.304688 L 45.820312 84.585938 " fill-opacity="1" fill-rule="nonzero"/><path fill="#ffffff" d="M 49.339844 84.585938 L 47.113281 84.585938 L 47.113281 82.304688 L 49.339844 82.304688 L 49.339844 84.585938 " fill-opacity="1" fill-rule="nonzero"/><path fill="#ffffff" d="M 52.859375 84.585938 L 50.632812 84.585938 L 50.632812 82.304688 L 52.859375 82.304688 L 52.859375 84.585938 " fill-opacity="1" fill-rule="nonzero"/><path fill="#ffffff" d="M 56.382812 84.585938 L 54.152344 84.585938 L 54.152344 82.304688 L 56.382812 82.304688 L 56.382812 84.585938 " fill-opacity="1" fill-rule="nonzero"/><path fill="#ffffff" d="M 42.300781 87.484375 L 40.070312 87.484375 L 40.070312 86.175781 L 42.300781 86.175781 L 42.300781 87.484375 " fill-opacity="1" fill-rule="nonzero"/><path fill="#ffffff" d="M 45.820312 87.484375 L 43.59375 87.484375 L 43.59375 86.175781 L 45.820312 86.175781 L 45.820312 87.484375 " fill-opacity="1" fill-rule="nonzero"/><path fill="#ffffff" d="M 49.339844 87.484375 L 47.113281 87.484375 L 47.113281 86.175781 L 49.339844 86.175781 L 49.339844 87.484375 " fill-opacity="1" fill-rule="nonzero"/><path fill="#ffffff" d="M 52.859375 87.484375 L 50.632812 87.484375 L 50.632812 86.175781 L 52.859375 86.175781 L 52.859375 87.484375 " fill-opacity="1" fill-rule="nonzero"/><path fill="#ffffff" d="M 56.382812 87.484375 L 54.152344 87.484375 L 54.152344 86.175781 L 56.382812 86.175781 L 56.382812 87.484375 " fill-opacity="1" fill-rule="nonzero"/><path fill="#ffffff" d="M 42.300781 90.164062 L 40.070312 90.164062 L 40.070312 88.851562 L 42.300781 88.851562 L 42.300781 90.164062 " fill-opacity="1" fill-rule="nonzero"/><path fill="#ffffff" d="M 45.820312 90.164062 L 43.59375 90.164062 L 43.59375 88.851562 L 45.820312 88.851562 L 45.820312 90.164062 " fill-opacity="1" fill-rule="nonzero"/><path fill="#ffffff" d="M 49.339844 90.164062 L 47.113281 90.164062 L 47.113281 88.851562 L 49.339844 88.851562 L 49.339844 90.164062 " fill-opacity="1" fill-rule="nonzero"/><path fill="#ffffff" d="M 52.859375 90.164062 L 50.632812 90.164062 L 50.632812 88.851562 L 52.859375 88.851562 L 52.859375 90.164062 " fill-opacity="1" fill-rule="nonzero"/><path fill="#ffffff" d="M 56.382812 90.164062 L 54.152344 90.164062 L 54.152344 88.851562 L 56.382812 88.851562 L 56.382812 90.164062 " fill-opacity="1" fill-rule="nonzero"/><path fill="#ffffff" d="M 42.300781 92.800781 L 40.070312 92.800781 L 40.070312 91.492188 L 42.300781 91.492188 L 42.300781 92.800781 " fill-opacity="1" fill-rule="nonzero"/><path fill="#ffffff" d="M 45.820312 92.800781 L 43.59375 92.800781 L 43.59375 91.492188 L 45.820312 91.492188 L 45.820312 92.800781 " fill-opacity="1" fill-rule="nonzero"/><path fill="#ffffff" d="M 49.339844 92.800781 L 47.113281 92.800781 L 47.113281 91.492188 L 49.339844 91.492188 L 49.339844 92.800781 " fill-opacity="1" fill-rule="nonzero"/><path fill="#ffffff" d="M 52.859375 92.800781 L 50.632812 92.800781 L 50.632812 91.492188 L 52.859375 91.492188 L 52.859375 92.800781 " fill-opacity="1" fill-rule="nonzero"/><path fill="#ffffff" d="M 56.382812 92.800781 L 54.152344 92.800781 L 54.152344 91.492188 L 56.382812 91.492188 L 56.382812 92.800781 " fill-opacity="1" fill-rule="nonzero"/><path fill="#ffffff" d="M 42.300781 95.480469 L 40.070312 95.480469 L 40.070312 94.167969 L 42.300781 94.167969 L 42.300781 95.480469 " fill-opacity="1" fill-rule="nonzero"/><path fill="#ffffff" d="M 45.820312 95.480469 L 43.59375 95.480469 L 43.59375 94.167969 L 45.820312 94.167969 L 45.820312 95.480469 " fill-opacity="1" fill-rule="nonzero"/><path fill="#ffffff" d="M 49.339844 95.480469 L 47.113281 95.480469 L 47.113281 94.167969 L 49.339844 94.167969 L 49.339844 95.480469 " fill-opacity="1" fill-rule="nonzero"/><path fill="#ffffff" d="M 52.859375 95.480469 L 50.632812 95.480469 L 50.632812 94.167969 L 52.859375 94.167969 L 52.859375 95.480469 " fill-opacity="1" fill-rule="nonzero"/><path fill="#ffffff" d="M 56.382812 95.480469 L 54.152344 95.480469 L 54.152344 94.167969 L 56.382812 94.167969 L 56.382812 95.480469 " fill-opacity="1" fill-rule="nonzero"/><path fill="#ffffff" d="M 42.300781 98.019531 L 40.070312 98.019531 L 40.070312 96.710938 L 42.300781 96.710938 L 42.300781 98.019531 " fill-opacity="1" fill-rule="nonzero"/><path fill="#ffffff" d="M 45.820312 98.019531 L 43.59375 98.019531 L 43.59375 96.710938 L 45.820312 96.710938 L 45.820312 98.019531 " fill-opacity="1" fill-rule="nonzero"/><path fill="#ffffff" d="M 49.339844 98.019531 L 47.113281 98.019531 L 47.113281 96.710938 L 49.339844 96.710938 L 49.339844 98.019531 " fill-opacity="1" fill-rule="nonzero"/><path fill="#ffffff" d="M 52.859375 98.019531 L 50.632812 98.019531 L 50.632812 96.710938 L 52.859375 96.710938 L 52.859375 98.019531 " fill-opacity="1" fill-rule="nonzero"/><path fill="#ffffff" d="M 56.382812 98.019531 L 54.152344 98.019531 L 54.152344 96.710938 L 56.382812 96.710938 L 56.382812 98.019531 " fill-opacity="1" fill-rule="nonzero"/><path fill="#ffffff" d="M 42.300781 100.699219 L 40.070312 100.699219 L 40.070312 99.386719 L 42.300781 99.386719 L 42.300781 100.699219 " fill-opacity="1" fill-rule="nonzero"/><path fill="#ffffff" d="M 45.820312 100.699219 L 43.59375 100.699219 L 43.59375 99.386719 L 45.820312 99.386719 L 45.820312 100.699219 " fill-opacity="1" fill-rule="nonzero"/><path fill="#ffffff" d="M 49.339844 100.699219 L 47.113281 100.699219 L 47.113281 99.386719 L 49.339844 99.386719 L 49.339844 100.699219 " fill-opacity="1" fill-rule="nonzero"/><path fill="#ffffff" d="M 52.859375 100.699219 L 50.632812 100.699219 L 50.632812 99.386719 L 52.859375 99.386719 L 52.859375 100.699219 " fill-opacity="1" fill-rule="nonzero"/><path fill="#ffffff" d="M 56.382812 100.699219 L 54.152344 100.699219 L 54.152344 99.386719 L 56.382812 99.386719 L 56.382812 100.699219 " fill-opacity="1" fill-rule="nonzero"/><path fill="#ffffff" d="M 42.300781 103.339844 L 40.070312 103.339844 L 40.070312 102.027344 L 42.300781 102.027344 L 42.300781 103.339844 " fill-opacity="1" fill-rule="nonzero"/><path fill="#ffffff" d="M 45.820312 103.339844 L 43.59375 103.339844 L 43.59375 102.027344 L 45.820312 102.027344 L 45.820312 103.339844 " fill-opacity="1" fill-rule="nonzero"/><path fill="#ffffff" d="M 49.339844 103.339844 L 47.113281 103.339844 L 47.113281 102.027344 L 49.339844 102.027344 L 49.339844 103.339844 " fill-opacity="1" fill-rule="nonzero"/><path fill="#ffffff" d="M 52.859375 103.339844 L 50.632812 103.339844 L 50.632812 102.027344 L 52.859375 102.027344 L 52.859375 103.339844 " fill-opacity="1" fill-rule="nonzero"/><path fill="#ffffff" d="M 56.382812 103.339844 L 54.152344 103.339844 L 54.152344 102.027344 L 56.382812 102.027344 L 56.382812 103.339844 " fill-opacity="1" fill-rule="nonzero"/><path fill="#ffffff" d="M 42.300781 106.015625 L 40.070312 106.015625 L 40.070312 104.707031 L 42.300781 104.707031 L 42.300781 106.015625 " fill-opacity="1" fill-rule="nonzero"/><path fill="#ffffff" d="M 45.820312 106.015625 L 43.59375 106.015625 L 43.59375 104.707031 L 45.820312 104.707031 L 45.820312 106.015625 " fill-opacity="1" fill-rule="nonzero"/><path fill="#ffffff" d="M 49.339844 106.015625 L 47.113281 106.015625 L 47.113281 104.707031 L 49.339844 104.707031 L 49.339844 106.015625 " fill-opacity="1" fill-rule="nonzero"/><path fill="#ffffff" d="M 52.859375 106.015625 L 50.632812 106.015625 L 50.632812 104.707031 L 52.859375 104.707031 L 52.859375 106.015625 " fill-opacity="1" fill-rule="nonzero"/><path fill="#ffffff" d="M 56.382812 106.015625 L 54.152344 106.015625 L 54.152344 104.707031 L 56.382812 104.707031 L 56.382812 106.015625 " fill-opacity="1" fill-rule="nonzero"/><path fill="#ffffff" d="M 42.300781 108.378906 L 40.070312 108.378906 L 40.070312 107.066406 L 42.300781 107.066406 L 42.300781 108.378906 " fill-opacity="1" fill-rule="nonzero"/><path fill="#ffffff" d="M 45.820312 108.378906 L 43.59375 108.378906 L 43.59375 107.066406 L 45.820312 107.066406 L 45.820312 108.378906 " fill-opacity="1" fill-rule="nonzero"/><path fill="#ffffff" d="M 49.339844 108.378906 L 47.113281 108.378906 L 47.113281 107.066406 L 49.339844 107.066406 L 49.339844 108.378906 " fill-opacity="1" fill-rule="nonzero"/><path fill="#ffffff" d="M 52.859375 108.378906 L 50.632812 108.378906 L 50.632812 107.066406 L 52.859375 107.066406 L 52.859375 108.378906 " fill-opacity="1" fill-rule="nonzero"/><path fill="#ffffff" d="M 56.382812 108.378906 L 54.152344 108.378906 L 54.152344 107.066406 L 56.382812 107.066406 L 56.382812 108.378906 " fill-opacity="1" fill-rule="nonzero"/><path fill="#ffffff" d="M 42.300781 111.058594 L 40.070312 111.058594 L 40.070312 109.746094 L 42.300781 109.746094 L 42.300781 111.058594 " fill-opacity="1" fill-rule="nonzero"/><path fill="#ffffff" d="M 45.820312 111.058594 L 43.59375 111.058594 L 43.59375 109.746094 L 45.820312 109.746094 L 45.820312 111.058594 " fill-opacity="1" fill-rule="nonzero"/><path fill="#ffffff" d="M 49.339844 111.058594 L 47.113281 111.058594 L 47.113281 109.746094 L 49.339844 109.746094 L 49.339844 111.058594 " fill-opacity="1" fill-rule="nonzero"/><path fill="#ffffff" d="M 52.859375 111.058594 L 50.632812 111.058594 L 50.632812 109.746094 L 52.859375 109.746094 L 52.859375 111.058594 " fill-opacity="1" fill-rule="nonzero"/><path fill="#ffffff" d="M 56.382812 111.058594 L 54.152344 111.058594 L 54.152344 109.746094 L 56.382812 109.746094 L 56.382812 111.058594 " fill-opacity="1" fill-rule="nonzero"/><path fill="#ffffff" d="M 42.300781 113.695312 L 40.070312 113.695312 L 40.070312 112.386719 L 42.300781 112.386719 L 42.300781 113.695312 " fill-opacity="1" fill-rule="nonzero"/><path fill="#ffffff" d="M 45.820312 113.695312 L 43.59375 113.695312 L 43.59375 112.386719 L 45.820312 112.386719 L 45.820312 113.695312 " fill-opacity="1" fill-rule="nonzero"/><path fill="#ffffff" d="M 49.339844 113.695312 L 47.113281 113.695312 L 47.113281 112.386719 L 49.339844 112.386719 L 49.339844 113.695312 " fill-opacity="1" fill-rule="nonzero"/><path fill="#ffffff" d="M 52.859375 113.695312 L 50.632812 113.695312 L 50.632812 112.386719 L 52.859375 112.386719 L 52.859375 113.695312 " fill-opacity="1" fill-rule="nonzero"/><path fill="#ffffff" d="M 56.382812 113.695312 L 54.152344 113.695312 L 54.152344 112.386719 L 56.382812 112.386719 L 56.382812 113.695312 " fill-opacity="1" fill-rule="nonzero"/><path fill="#ffffff" d="M 42.300781 116.375 L 40.070312 116.375 L 40.070312 115.066406 L 42.300781 115.066406 L 42.300781 116.375 " fill-opacity="1" fill-rule="nonzero"/><path fill="#ffffff" d="M 45.820312 116.375 L 43.59375 116.375 L 43.59375 115.066406 L 45.820312 115.066406 L 45.820312 116.375 " fill-opacity="1" fill-rule="nonzero"/><path fill="#ffffff" d="M 49.339844 116.375 L 47.113281 116.375 L 47.113281 115.066406 L 49.339844 115.066406 L 49.339844 116.375 " fill-opacity="1" fill-rule="nonzero"/><path fill="#ffffff" d="M 52.859375 116.375 L 50.632812 116.375 L 50.632812 115.066406 L 52.859375 115.066406 L 52.859375 116.375 " fill-opacity="1" fill-rule="nonzero"/><path fill="#ffffff" d="M 56.382812 116.375 L 54.152344 116.375 L 54.152344 115.066406 L 56.382812 115.066406 L 56.382812 116.375 " fill-opacity="1" fill-rule="nonzero"/><path fill="#ffffff" d="M 42.300781 118.914062 L 40.070312 118.914062 L 40.070312 117.601562 L 42.300781 117.601562 L 42.300781 118.914062 " fill-opacity="1" fill-rule="nonzero"/><path fill="#ffffff" d="M 45.820312 118.914062 L 43.59375 118.914062 L 43.59375 117.601562 L 45.820312 117.601562 L 45.820312 118.914062 " fill-opacity="1" fill-rule="nonzero"/><path fill="#ffffff" d="M 49.339844 118.914062 L 47.113281 118.914062 L 47.113281 117.601562 L 49.339844 117.601562 L 49.339844 118.914062 " fill-opacity="1" fill-rule="nonzero"/><path fill="#ffffff" d="M 52.859375 118.914062 L 50.632812 118.914062 L 50.632812 117.601562 L 52.859375 117.601562 L 52.859375 118.914062 " fill-opacity="1" fill-rule="nonzero"/><path fill="#ffffff" d="M 56.382812 118.914062 L 54.152344 118.914062 L 54.152344 117.601562 L 56.382812 117.601562 L 56.382812 118.914062 " fill-opacity="1" fill-rule="nonzero"/><path fill="#ffffff" d="M 42.300781 121.59375 L 40.070312 121.59375 L 40.070312 120.28125 L 42.300781 120.28125 L 42.300781 121.59375 " fill-opacity="1" fill-rule="nonzero"/><path fill="#ffffff" d="M 45.820312 121.59375 L 43.59375 121.59375 L 43.59375 120.28125 L 45.820312 120.28125 L 45.820312 121.59375 " fill-opacity="1" fill-rule="nonzero"/><path fill="#ffffff" d="M 49.339844 121.59375 L 47.113281 121.59375 L 47.113281 120.28125 L 49.339844 120.28125 L 49.339844 121.59375 " fill-opacity="1" fill-rule="nonzero"/><path fill="#ffffff" d="M 52.859375 121.59375 L 50.632812 121.59375 L 50.632812 120.28125 L 52.859375 120.28125 L 52.859375 121.59375 " fill-opacity="1" fill-rule="nonzero"/><path fill="#ffffff" d="M 56.382812 121.59375 L 54.152344 121.59375 L 54.152344 120.28125 L 56.382812 120.28125 L 56.382812 121.59375 " fill-opacity="1" fill-rule="nonzero"/><path fill="#ffffff" d="M 42.300781 124.230469 L 40.070312 124.230469 L 40.070312 122.921875 L 42.300781 122.921875 L 42.300781 124.230469 " fill-opacity="1" fill-rule="nonzero"/><path fill="#ffffff" d="M 45.820312 124.230469 L 43.59375 124.230469 L 43.59375 122.921875 L 45.820312 122.921875 L 45.820312 124.230469 " fill-opacity="1" fill-rule="nonzero"/><path fill="#ffffff" d="M 49.339844 124.230469 L 47.113281 124.230469 L 47.113281 122.921875 L 49.339844 122.921875 L 49.339844 124.230469 " fill-opacity="1" fill-rule="nonzero"/><path fill="#ffffff" d="M 52.859375 124.230469 L 50.632812 124.230469 L 50.632812 122.921875 L 52.859375 122.921875 L 52.859375 124.230469 " fill-opacity="1" fill-rule="nonzero"/><path fill="#ffffff" d="M 56.382812 124.230469 L 54.152344 124.230469 L 54.152344 122.921875 L 56.382812 122.921875 L 56.382812 124.230469 " fill-opacity="1" fill-rule="nonzero"/><path fill="#ffffff" d="M 42.300781 126.910156 L 40.070312 126.910156 L 40.070312 125.601562 L 42.300781 125.601562 L 42.300781 126.910156 " fill-opacity="1" fill-rule="nonzero"/><path fill="#ffffff" d="M 45.820312 126.910156 L 43.59375 126.910156 L 43.59375 125.601562 L 45.820312 125.601562 L 45.820312 126.910156 " fill-opacity="1" fill-rule="nonzero"/><path fill="#ffffff" d="M 49.339844 126.910156 L 47.113281 126.910156 L 47.113281 125.601562 L 49.339844 125.601562 L 49.339844 126.910156 " fill-opacity="1" fill-rule="nonzero"/><path fill="#ffffff" d="M 52.859375 126.910156 L 50.632812 126.910156 L 50.632812 125.601562 L 52.859375 125.601562 L 52.859375 126.910156 " fill-opacity="1" fill-rule="nonzero"/><path fill="#ffffff" d="M 56.382812 126.910156 L 54.152344 126.910156 L 54.152344 125.601562 L 56.382812 125.601562 L 56.382812 126.910156 " fill-opacity="1" fill-rule="nonzero"/><path fill="#ffffff" d="M 42.300781 129.570312 L 40.070312 129.570312 L 40.070312 128.261719 L 42.300781 128.261719 L 42.300781 129.570312 " fill-opacity="1" fill-rule="nonzero"/><path fill="#ffffff" d="M 56.382812 129.570312 L 54.152344 129.570312 L 54.152344 128.261719 L 56.382812 128.261719 L 56.382812 129.570312 " fill-opacity="1" fill-rule="nonzero"/><path fill="#ffffff" d="M 42.300781 132.210938 L 40.070312 132.210938 L 40.070312 130.898438 L 42.300781 130.898438 L 42.300781 132.210938 " fill-opacity="1" fill-rule="nonzero"/><path fill="#ffffff" d="M 56.382812 132.210938 L 54.152344 132.210938 L 54.152344 130.898438 L 56.382812 130.898438 L 56.382812 132.210938 " fill-opacity="1" fill-rule="nonzero"/><path fill="#ffffff" d="M 42.300781 134.886719 L 40.070312 134.886719 L 40.070312 133.578125 L 42.300781 133.578125 L 42.300781 134.886719 " fill-opacity="1" fill-rule="nonzero"/><path fill="#ffffff" d="M 56.382812 134.886719 L 54.152344 134.886719 L 54.152344 133.578125 L 56.382812 133.578125 L 56.382812 134.886719 " fill-opacity="1" fill-rule="nonzero"/><path fill="#ffffff" d="M 50.632812 129.570312 L 45.820312 129.570312 L 45.820312 136.414062 L 50.632812 136.414062 L 50.632812 129.570312 " fill-opacity="1" fill-rule="nonzero"/><path fill="#14b0c4" d="M 87.410156 136.414062 L 58.902344 136.414062 L 58.902344 87.636719 L 87.410156 87.636719 L 87.410156 136.414062 " fill-opacity="1" fill-rule="nonzero"/><path fill="#07858e" d="M 82.875 87.636719 L 63.441406 87.636719 L 63.441406 84.503906 L 82.875 84.503906 L 82.875 87.636719 " fill-opacity="1" fill-rule="nonzero"/><path fill="#ffffff" d="M 65.992188 93.054688 L 60.769531 93.054688 L 60.769531 90.574219 L 65.992188 90.574219 L 65.992188 93.054688 " fill-opacity="1" fill-rule="nonzero"/><path fill="#ffffff" d="M 72.511719 93.054688 L 67.285156 93.054688 L 67.285156 90.574219 L 72.511719 90.574219 L 72.511719 93.054688 " fill-opacity="1" fill-rule="nonzero"/><path fill="#ffffff" d="M 79.027344 93.054688 L 73.804688 93.054688 L 73.804688 90.574219 L 79.027344 90.574219 L 79.027344 93.054688 " fill-opacity="1" fill-rule="nonzero"/><path fill="#ffffff" d="M 85.542969 93.054688 L 80.320312 93.054688 L 80.320312 90.574219 L 85.542969 90.574219 L 85.542969 93.054688 " fill-opacity="1" fill-rule="nonzero"/><path fill="#ffffff" d="M 65.992188 95.597656 L 60.769531 95.597656 L 60.769531 94.347656 L 65.992188 94.347656 L 65.992188 95.597656 " fill-opacity="1" fill-rule="nonzero"/><path fill="#ffffff" d="M 72.511719 95.597656 L 67.285156 95.597656 L 67.285156 94.347656 L 72.511719 94.347656 L 72.511719 95.597656 " fill-opacity="1" fill-rule="nonzero"/><path fill="#ffffff" d="M 79.027344 95.597656 L 73.804688 95.597656 L 73.804688 94.347656 L 79.027344 94.347656 L 79.027344 95.597656 " fill-opacity="1" fill-rule="nonzero"/><path fill="#ffffff" d="M 85.542969 95.597656 L 80.320312 95.597656 L 80.320312 94.347656 L 85.542969 94.347656 L 85.542969 95.597656 " fill-opacity="1" fill-rule="nonzero"/><path fill="#ffffff" d="M 65.992188 98.136719 L 60.769531 98.136719 L 60.769531 96.890625 L 65.992188 96.890625 L 65.992188 98.136719 " fill-opacity="1" fill-rule="nonzero"/><path fill="#ffffff" d="M 72.511719 98.136719 L 67.285156 98.136719 L 67.285156 96.890625 L 72.511719 96.890625 L 72.511719 98.136719 " fill-opacity="1" fill-rule="nonzero"/><path fill="#ffffff" d="M 79.027344 98.136719 L 73.804688 98.136719 L 73.804688 96.890625 L 79.027344 96.890625 L 79.027344 98.136719 " fill-opacity="1" fill-rule="nonzero"/><path fill="#ffffff" d="M 85.542969 98.136719 L 80.320312 98.136719 L 80.320312 96.890625 L 85.542969 96.890625 L 85.542969 98.136719 " fill-opacity="1" fill-rule="nonzero"/><path fill="#ffffff" d="M 65.992188 100.679688 L 60.769531 100.679688 L 60.769531 99.429688 L 65.992188 99.429688 L 65.992188 100.679688 " fill-opacity="1" fill-rule="nonzero"/><path fill="#ffffff" d="M 72.511719 100.679688 L 67.285156 100.679688 L 67.285156 99.429688 L 72.511719 99.429688 L 72.511719 100.679688 " fill-opacity="1" fill-rule="nonzero"/><path fill="#ffffff" d="M 79.027344 100.679688 L 73.804688 100.679688 L 73.804688 99.429688 L 79.027344 99.429688 L 79.027344 100.679688 " fill-opacity="1" fill-rule="nonzero"/><path fill="#ffffff" d="M 85.542969 100.679688 L 80.320312 100.679688 L 80.320312 99.429688 L 85.542969 99.429688 L 85.542969 100.679688 " fill-opacity="1" fill-rule="nonzero"/><path fill="#ffffff" d="M 65.992188 103.222656 L 60.769531 103.222656 L 60.769531 101.972656 L 65.992188 101.972656 L 65.992188 103.222656 " fill-opacity="1" fill-rule="nonzero"/><path fill="#ffffff" d="M 72.511719 103.222656 L 67.285156 103.222656 L 67.285156 101.972656 L 72.511719 101.972656 L 72.511719 103.222656 " fill-opacity="1" fill-rule="nonzero"/><path fill="#ffffff" d="M 79.027344 103.222656 L 73.804688 103.222656 L 73.804688 101.972656 L 79.027344 101.972656 L 79.027344 103.222656 " fill-opacity="1" fill-rule="nonzero"/><path fill="#ffffff" d="M 85.542969 103.222656 L 80.320312 103.222656 L 80.320312 101.972656 L 85.542969 101.972656 L 85.542969 103.222656 " fill-opacity="1" fill-rule="nonzero"/><path fill="#ffffff" d="M 65.992188 105.851562 L 60.769531 105.851562 L 60.769531 104.601562 L 65.992188 104.601562 L 65.992188 105.851562 " fill-opacity="1" fill-rule="nonzero"/><path fill="#ffffff" d="M 72.511719 105.851562 L 67.285156 105.851562 L 67.285156 104.601562 L 72.511719 104.601562 L 72.511719 105.851562 " fill-opacity="1" fill-rule="nonzero"/><path fill="#ffffff" d="M 79.027344 105.851562 L 73.804688 105.851562 L 73.804688 104.601562 L 79.027344 104.601562 L 79.027344 105.851562 " fill-opacity="1" fill-rule="nonzero"/><path fill="#ffffff" d="M 85.542969 105.851562 L 80.320312 105.851562 L 80.320312 104.601562 L 85.542969 104.601562 L 85.542969 105.851562 " fill-opacity="1" fill-rule="nonzero"/><path fill="#ffffff" d="M 65.992188 108.394531 L 60.769531 108.394531 L 60.769531 107.144531 L 65.992188 107.144531 L 65.992188 108.394531 " fill-opacity="1" fill-rule="nonzero"/><path fill="#ffffff" d="M 72.511719 108.394531 L 67.285156 108.394531 L 67.285156 107.144531 L 72.511719 107.144531 L 72.511719 108.394531 " fill-opacity="1" fill-rule="nonzero"/><path fill="#ffffff" d="M 79.027344 108.394531 L 73.804688 108.394531 L 73.804688 107.144531 L 79.027344 107.144531 L 79.027344 108.394531 " fill-opacity="1" fill-rule="nonzero"/><path fill="#ffffff" d="M 85.542969 108.394531 L 80.320312 108.394531 L 80.320312 107.144531 L 85.542969 107.144531 L 85.542969 108.394531 " fill-opacity="1" fill-rule="nonzero"/><path fill="#ffffff" d="M 65.992188 110.9375 L 60.769531 110.9375 L 60.769531 109.6875 L 65.992188 109.6875 L 65.992188 110.9375 " fill-opacity="1" fill-rule="nonzero"/><path fill="#ffffff" d="M 72.511719 110.9375 L 67.285156 110.9375 L 67.285156 109.6875 L 72.511719 109.6875 L 72.511719 110.9375 " fill-opacity="1" fill-rule="nonzero"/><path fill="#ffffff" d="M 79.027344 110.9375 L 73.804688 110.9375 L 73.804688 109.6875 L 79.027344 109.6875 L 79.027344 110.9375 " fill-opacity="1" fill-rule="nonzero"/><path fill="#ffffff" d="M 85.542969 110.9375 L 80.320312 110.9375 L 80.320312 109.6875 L 85.542969 109.6875 L 85.542969 110.9375 " fill-opacity="1" fill-rule="nonzero"/><path fill="#ffffff" d="M 65.992188 113.476562 L 60.769531 113.476562 L 60.769531 112.230469 L 65.992188 112.230469 L 65.992188 113.476562 " fill-opacity="1" fill-rule="nonzero"/><path fill="#ffffff" d="M 72.511719 113.476562 L 67.285156 113.476562 L 67.285156 112.230469 L 72.511719 112.230469 L 72.511719 113.476562 " fill-opacity="1" fill-rule="nonzero"/><path fill="#ffffff" d="M 79.027344 113.476562 L 73.804688 113.476562 L 73.804688 112.230469 L 79.027344 112.230469 L 79.027344 113.476562 " fill-opacity="1" fill-rule="nonzero"/><path fill="#ffffff" d="M 85.542969 113.476562 L 80.320312 113.476562 L 80.320312 112.230469 L 85.542969 112.230469 L 85.542969 113.476562 " fill-opacity="1" fill-rule="nonzero"/><path fill="#ffffff" d="M 65.992188 116.019531 L 60.769531 116.019531 L 60.769531 114.769531 L 65.992188 114.769531 L 65.992188 116.019531 " fill-opacity="1" fill-rule="nonzero"/><path fill="#ffffff" d="M 72.511719 116.019531 L 67.285156 116.019531 L 67.285156 114.769531 L 72.511719 114.769531 L 72.511719 116.019531 " fill-opacity="1" fill-rule="nonzero"/><path fill="#ffffff" d="M 79.027344 116.019531 L 73.804688 116.019531 L 73.804688 114.769531 L 79.027344 114.769531 L 79.027344 116.019531 " fill-opacity="1" fill-rule="nonzero"/><path fill="#ffffff" d="M 85.542969 116.019531 L 80.320312 116.019531 L 80.320312 114.769531 L 85.542969 114.769531 L 85.542969 116.019531 " fill-opacity="1" fill-rule="nonzero"/><path fill="#ffffff" d="M 65.992188 118.5625 L 60.769531 118.5625 L 60.769531 117.3125 L 65.992188 117.3125 L 65.992188 118.5625 " fill-opacity="1" fill-rule="nonzero"/><path fill="#ffffff" d="M 72.511719 118.5625 L 67.285156 118.5625 L 67.285156 117.3125 L 72.511719 117.3125 L 72.511719 118.5625 " fill-opacity="1" fill-rule="nonzero"/><path fill="#ffffff" d="M 79.027344 118.5625 L 73.804688 118.5625 L 73.804688 117.3125 L 79.027344 117.3125 L 79.027344 118.5625 " fill-opacity="1" fill-rule="nonzero"/><path fill="#ffffff" d="M 85.542969 118.5625 L 80.320312 118.5625 L 80.320312 117.3125 L 85.542969 117.3125 L 85.542969 118.5625 " fill-opacity="1" fill-rule="nonzero"/><path fill="#ffffff" d="M 65.992188 121.105469 L 60.769531 121.105469 L 60.769531 119.855469 L 65.992188 119.855469 L 65.992188 121.105469 " fill-opacity="1" fill-rule="nonzero"/><path fill="#ffffff" d="M 72.511719 121.105469 L 67.285156 121.105469 L 67.285156 119.855469 L 72.511719 119.855469 L 72.511719 121.105469 " fill-opacity="1" fill-rule="nonzero"/><path fill="#ffffff" d="M 79.027344 121.105469 L 73.804688 121.105469 L 73.804688 119.855469 L 79.027344 119.855469 L 79.027344 121.105469 " fill-opacity="1" fill-rule="nonzero"/><path fill="#ffffff" d="M 85.542969 121.105469 L 80.320312 121.105469 L 80.320312 119.855469 L 85.542969 119.855469 L 85.542969 121.105469 " fill-opacity="1" fill-rule="nonzero"/><path fill="#ffffff" d="M 65.992188 123.648438 L 60.769531 123.648438 L 60.769531 122.398438 L 65.992188 122.398438 L 65.992188 123.648438 " fill-opacity="1" fill-rule="nonzero"/><path fill="#ffffff" d="M 72.511719 123.648438 L 67.285156 123.648438 L 67.285156 122.398438 L 72.511719 122.398438 L 72.511719 123.648438 " fill-opacity="1" fill-rule="nonzero"/><path fill="#ffffff" d="M 79.027344 123.648438 L 73.804688 123.648438 L 73.804688 122.398438 L 79.027344 122.398438 L 79.027344 123.648438 " fill-opacity="1" fill-rule="nonzero"/><path fill="#ffffff" d="M 85.542969 123.648438 L 80.320312 123.648438 L 80.320312 122.398438 L 85.542969 122.398438 L 85.542969 123.648438 " fill-opacity="1" fill-rule="nonzero"/><path fill="#ffffff" d="M 65.992188 126.277344 L 60.769531 126.277344 L 60.769531 125.023438 L 65.992188 125.023438 L 65.992188 126.277344 " fill-opacity="1" fill-rule="nonzero"/><path fill="#ffffff" d="M 72.511719 126.277344 L 67.285156 126.277344 L 67.285156 125.023438 L 72.511719 125.023438 L 72.511719 126.277344 " fill-opacity="1" fill-rule="nonzero"/><path fill="#ffffff" d="M 79.027344 126.277344 L 73.804688 126.277344 L 73.804688 125.023438 L 79.027344 125.023438 L 79.027344 126.277344 " fill-opacity="1" fill-rule="nonzero"/><path fill="#ffffff" d="M 85.542969 126.277344 L 80.320312 126.277344 L 80.320312 125.023438 L 85.542969 125.023438 L 85.542969 126.277344 " fill-opacity="1" fill-rule="nonzero"/><path fill="#ffffff" d="M 65.992188 128.816406 L 60.769531 128.816406 L 60.769531 127.566406 L 65.992188 127.566406 L 65.992188 128.816406 " fill-opacity="1" fill-rule="nonzero"/><path fill="#ffffff" d="M 85.542969 128.816406 L 80.320312 128.816406 L 80.320312 127.566406 L 85.542969 127.566406 L 85.542969 128.816406 " fill-opacity="1" fill-rule="nonzero"/><path fill="#ffffff" d="M 65.992188 131.359375 L 60.769531 131.359375 L 60.769531 130.109375 L 65.992188 130.109375 L 65.992188 131.359375 " fill-opacity="1" fill-rule="nonzero"/><path fill="#ffffff" d="M 85.542969 131.359375 L 80.320312 131.359375 L 80.320312 130.109375 L 85.542969 130.109375 L 85.542969 131.359375 " fill-opacity="1" fill-rule="nonzero"/><path fill="#ffffff" d="M 65.992188 133.902344 L 60.769531 133.902344 L 60.769531 132.652344 L 65.992188 132.652344 L 65.992188 133.902344 " fill-opacity="1" fill-rule="nonzero"/><path fill="#ffffff" d="M 85.542969 133.902344 L 80.320312 133.902344 L 80.320312 132.652344 L 85.542969 132.652344 L 85.542969 133.902344 " fill-opacity="1" fill-rule="nonzero"/><path fill="#ffffff" d="M 76.414062 127.566406 L 70.261719 127.566406 L 70.261719 136.414062 L 76.414062 136.414062 L 76.414062 127.566406 " fill-opacity="1" fill-rule="nonzero"/><path fill="#8e1070" d="M 104.125 92.863281 L 87.410156 92.863281 L 87.410156 136.414062 L 104.125 136.414062 L 104.125 92.863281 " fill-opacity="1" fill-rule="nonzero"/><path fill="#ffffff" d="M 91.230469 98.570312 L 89.929688 98.570312 L 89.929688 135.273438 L 91.230469 135.273438 L 91.230469 98.570312 " fill-opacity="1" fill-rule="nonzero"/><path fill="#ffffff" d="M 89.929688 96.359375 L 91.230469 96.359375 L 91.230469 97.660156 L 89.929688 97.660156 L 89.929688 96.359375 " fill-opacity="1" fill-rule="nonzero"/><path fill="#ffffff" d="M 93.824219 98.570312 L 92.523438 98.570312 L 92.523438 128.671875 L 93.824219 128.671875 L 93.824219 98.570312 " fill-opacity="1" fill-rule="nonzero"/><path fill="#ffffff" d="M 92.523438 96.359375 L 93.824219 96.359375 L 93.824219 97.660156 L 92.523438 97.660156 L 92.523438 96.359375 " fill-opacity="1" fill-rule="nonzero"/><path fill="#ffffff" d="M 96.417969 98.570312 L 95.117188 98.570312 L 95.117188 128.671875 L 96.417969 128.671875 L 96.417969 98.570312 " fill-opacity="1" fill-rule="nonzero"/><path fill="#ffffff" d="M 95.117188 96.359375 L 96.417969 96.359375 L 96.417969 97.660156 L 95.117188 97.660156 L 95.117188 96.359375 " fill-opacity="1" fill-rule="nonzero"/><path fill="#ffffff" d="M 99.011719 98.570312 L 97.710938 98.570312 L 97.710938 128.671875 L 99.011719 128.671875 L 99.011719 98.570312 " fill-opacity="1" fill-rule="nonzero"/><path fill="#ffffff" d="M 97.710938 96.359375 L 99.011719 96.359375 L 99.011719 97.660156 L 97.710938 97.660156 L 97.710938 96.359375 " fill-opacity="1" fill-rule="nonzero"/><path fill="#ffffff" d="M 101.605469 98.570312 L 100.304688 98.570312 L 100.304688 135.273438 L 101.605469 135.273438 L 101.605469 98.570312 " fill-opacity="1" fill-rule="nonzero"/><path fill="#ffffff" d="M 100.304688 96.359375 L 101.605469 96.359375 L 101.605469 97.660156 L 100.304688 97.660156 L 100.304688 96.359375 " fill-opacity="1" fill-rule="nonzero"/><path fill="#ffffff" d="M 97.710938 136.414062 L 97.710938 131.929688 C 97.710938 130.859375 96.84375 129.988281 95.769531 129.988281 C 94.695312 129.988281 93.824219 130.859375 93.824219 131.929688 L 93.824219 136.414062 L 97.710938 136.414062 " fill-opacity="1" fill-rule="nonzero"/><g clip-path="url(#0a191b9059)"><path fill="#c1b99f" d="M 95.765625 15.164062 C 95.617188 15.164062 95.472656 15.179688 95.332031 15.207031 C 95.441406 14.84375 95.503906 14.457031 95.503906 14.058594 C 95.503906 11.867188 93.726562 10.09375 91.535156 10.09375 C 91.058594 10.09375 90.601562 10.183594 90.179688 10.335938 C 89.625 8.4375 87.875 7.050781 85.796875 7.050781 C 83.273438 7.050781 81.230469 9.09375 81.230469 11.617188 C 81.230469 11.808594 81.246094 11.996094 81.265625 12.183594 C 81.253906 12.183594 81.242188 12.183594 81.230469 12.183594 C 79.167969 12.183594 77.496094 13.851562 77.496094 15.914062 C 77.496094 17.96875 79.167969 19.640625 81.230469 19.640625 L 95.765625 19.640625 C 97.003906 19.640625 98.007812 18.636719 98.007812 17.402344 C 98.007812 16.164062 97.003906 15.164062 95.765625 15.164062 " fill-opacity="1" fill-rule="nonzero"/></g><path fill="#14b0c4" d="M 125.292969 110.1875 L 109.289062 110.1875 L 109.289062 136.109375 L 125.292969 136.109375 L 125.292969 110.1875 " fill-opacity="1" fill-rule="nonzero"/><path fill="#07858e" d="M 127.460938 112.625 L 107.121094 112.625 L 108.957031 107.214844 L 125.625 107.214844 L 127.460938 112.625 " fill-opacity="1" fill-rule="nonzero"/><path fill="#231f20" d="M 114.433594 116.964844 L 114.433594 115.566406 C 114.433594 114.777344 113.792969 114.136719 113.003906 114.136719 C 112.214844 114.136719 111.574219 114.777344 111.574219 115.566406 L 111.574219 116.964844 L 114.433594 116.964844 " fill-opacity="1" fill-rule="nonzero"/><path fill="#231f20" d="M 118.761719 116.964844 L 118.761719 115.566406 C 118.761719 114.777344 118.121094 114.136719 117.332031 114.136719 C 116.542969 114.136719 115.902344 114.777344 115.902344 115.566406 L 115.902344 116.964844 L 118.761719 116.964844 " fill-opacity="1" fill-rule="nonzero"/><path fill="#231f20" d="M 123.007812 116.964844 L 123.007812 115.566406 C 123.007812 114.777344 122.367188 114.136719 121.578125 114.136719 C 120.789062 114.136719 120.148438 114.777344 120.148438 115.566406 L 120.148438 116.964844 L 123.007812 116.964844 " fill-opacity="1" fill-rule="nonzero"/><path fill="#231f20" d="M 114.433594 121.5625 L 114.433594 120.164062 C 114.433594 119.375 113.792969 118.734375 113.003906 118.734375 C 112.214844 118.734375 111.574219 119.375 111.574219 120.164062 L 111.574219 121.5625 L 114.433594 121.5625 " fill-opacity="1" fill-rule="nonzero"/><path fill="#231f20" d="M 118.761719 121.5625 L 118.761719 120.164062 C 118.761719 119.375 118.121094 118.734375 117.332031 118.734375 C 116.542969 118.734375 115.902344 119.375 115.902344 120.164062 L 115.902344 121.5625 L 118.761719 121.5625 " fill-opacity="1" fill-rule="nonzero"/><path fill="#231f20" d="M 123.007812 121.5625 L 123.007812 120.164062 C 123.007812 119.375 122.367188 118.734375 121.578125 118.734375 C 120.789062 118.734375 120.148438 119.375 120.148438 120.164062 L 120.148438 121.5625 L 123.007812 121.5625 " fill-opacity="1" fill-rule="nonzero"/><path fill="#eb3118" d="M 135.546875 123.023438 L 103.910156 123.023438 L 103.910156 136.554688 L 135.546875 136.554688 L 135.546875 123.023438 " fill-opacity="1" fill-rule="nonzero"/><path fill="#b71a09" d="M 135.546875 126.105469 L 103.910156 126.105469 L 103.910156 123.023438 L 135.546875 123.023438 L 135.546875 126.105469 " fill-opacity="1" fill-rule="nonzero"/><path fill="#ffffff" d="M 107.386719 127.992188 C 106.289062 127.992188 105.398438 128.878906 105.398438 129.972656 L 109.371094 129.972656 C 109.371094 128.878906 108.480469 127.992188 107.386719 127.992188 " fill-opacity="1" fill-rule="nonzero"/><path fill="#ffffff" d="M 112.339844 127.992188 C 111.242188 127.992188 110.351562 128.878906 110.351562 129.972656 L 114.324219 129.972656 C 114.324219 128.878906 113.433594 127.992188 112.339844 127.992188 " fill-opacity="1" fill-rule="nonzero"/><path fill="#ffffff" d="M 117.292969 127.992188 C 116.195312 127.992188 115.304688 128.878906 115.304688 129.972656 L 119.273438 129.972656 C 119.273438 128.878906 118.386719 127.992188 117.292969 127.992188 " fill-opacity="1" fill-rule="nonzero"/><path fill="#ffffff" d="M 122.242188 127.992188 C 121.148438 127.992188 120.257812 128.878906 120.257812 129.972656 L 124.226562 129.972656 C 124.226562 128.878906 123.339844 127.992188 122.242188 127.992188 " fill-opacity="1" fill-rule="nonzero"/><path fill="#ffffff" d="M 127.195312 127.992188 C 126.101562 127.992188 125.210938 128.878906 125.210938 129.972656 L 129.183594 129.972656 C 129.183594 128.878906 128.292969 127.992188 127.195312 127.992188 " fill-opacity="1" fill-rule="nonzero"/><path fill="#ffffff" d="M 132.148438 127.992188 C 131.054688 127.992188 130.164062 128.878906 130.164062 129.972656 L 134.132812 129.972656 C 134.132812 128.878906 133.246094 127.992188 132.148438 127.992188 " fill-opacity="1" fill-rule="nonzero"/><path fill="#ffffff" d="M 109.371094 134.566406 L 105.398438 134.566406 L 105.398438 131.109375 L 109.371094 131.109375 L 109.371094 134.566406 " fill-opacity="1" fill-rule="nonzero"/><path fill="#ffffff" d="M 114.324219 134.566406 L 110.351562 134.566406 L 110.351562 131.109375 L 114.324219 131.109375 L 114.324219 134.566406 " fill-opacity="1" fill-rule="nonzero"/><path fill="#ffffff" d="M 119.238281 134.566406 L 115.269531 134.566406 L 115.269531 131.109375 L 119.238281 131.109375 L 119.238281 134.566406 " fill-opacity="1" fill-rule="nonzero"/><path fill="#ffffff" d="M 124.191406 134.566406 L 120.21875 134.566406 L 120.21875 131.109375 L 124.191406 131.109375 L 124.191406 134.566406 " fill-opacity="1" fill-rule="nonzero"/><path fill="#ffffff" d="M 129.183594 134.566406 L 125.210938 134.566406 L 125.210938 131.109375 L 129.183594 131.109375 L 129.183594 134.566406 " fill-opacity="1" fill-rule="nonzero"/><path fill="#ffffff" d="M 134.136719 134.566406 L 130.164062 134.566406 L 130.164062 131.109375 L 134.136719 131.109375 L 134.136719 134.566406 " fill-opacity="1" fill-rule="nonzero"/><g clip-path="url(#0ec6a48a0f)"><path fill="#58595b" d="M 14.46875 152.636719 C 11.917969 152.636719 9.84375 150.589844 9.796875 148.054688 C 9.84375 145.519531 11.917969 143.472656 14.46875 143.472656 L 100.753906 143.472656 L 100.753906 143.476562 L 159.058594 143.476562 C 165.671875 143.476562 171.054688 138.125 171.101562 131.53125 C 171.054688 124.9375 165.671875 119.585938 159.058594 119.585938 L 146.59375 119.585938 L 146.59375 126.949219 L 159.058594 126.949219 C 161.605469 126.949219 163.679688 129 163.726562 131.53125 C 163.679688 134.0625 161.605469 136.113281 159.058594 136.113281 L 153.898438 136.113281 L 153.898438 136.109375 L 14.46875 136.109375 C 7.851562 136.109375 2.46875 141.460938 2.421875 148.054688 C 2.46875 154.648438 7.851562 160 14.46875 160 L 175.84375 160 L 175.84375 152.636719 L 14.46875 152.636719 " fill-opacity="1" fill-rule="nonzero"/></g><path fill="#a7a9ac" d="M 57.796875 156.984375 L 62.179688 156.984375 L 62.179688 156.011719 L 57.796875 156.011719 L 57.796875 156.984375 " fill-opacity="1" fill-rule="nonzero"/><path fill="#a7a9ac" d="M 67.105469 139.023438 L 62.726562 139.023438 L 62.726562 139.996094 L 67.105469 139.996094 L 67.105469 139.023438 " fill-opacity="1" fill-rule="nonzero"/><path fill="#a7a9ac" d="M 58.34375 139.023438 L 53.964844 139.023438 L 53.964844 139.996094 L 58.34375 139.996094 L 58.34375 139.023438 " fill-opacity="1" fill-rule="nonzero"/><path fill="#a7a9ac" d="M 49.035156 156.984375 L 53.417969 156.984375 L 53.417969 156.011719 L 49.035156 156.011719 L 49.035156 156.984375 " fill-opacity="1" fill-rule="nonzero"/><path fill="#a7a9ac" d="M 84.632812 139.023438 L 80.25 139.023438 L 80.25 139.996094 L 84.632812 139.996094 L 84.632812 139.023438 " fill-opacity="1" fill-rule="nonzero"/><path fill="#a7a9ac" d="M 84.085938 156.984375 L 88.46875 156.984375 L 88.46875 156.011719 L 84.085938 156.011719 L 84.085938 156.984375 " fill-opacity="1" fill-rule="nonzero"/><path fill="#a7a9ac" d="M 75.324219 156.984375 L 79.703125 156.984375 L 79.703125 156.011719 L 75.324219 156.011719 L 75.324219 156.984375 " fill-opacity="1" fill-rule="nonzero"/><path fill="#a7a9ac" d="M 49.582031 139.023438 L 45.199219 139.023438 L 45.199219 139.996094 L 49.582031 139.996094 L 49.582031 139.023438 " fill-opacity="1" fill-rule="nonzero"/><path fill="#a7a9ac" d="M 75.871094 139.023438 L 71.488281 139.023438 L 71.488281 139.996094 L 75.871094 139.996094 L 75.871094 139.023438 " fill-opacity="1" fill-rule="nonzero"/><path fill="#a7a9ac" d="M 66.558594 156.984375 L 70.941406 156.984375 L 70.941406 156.011719 L 66.558594 156.011719 L 66.558594 156.984375 " fill-opacity="1" fill-rule="nonzero"/><path fill="#a7a9ac" d="M 40.269531 156.984375 L 44.652344 156.984375 L 44.652344 156.011719 L 40.269531 156.011719 L 40.269531 156.984375 " fill-opacity="1" fill-rule="nonzero"/><path fill="#a7a9ac" d="M 14.53125 139.996094 L 14.53125 139.023438 L 14.226562 139.023438 C 12.777344 139.023438 11.34375 139.394531 10.085938 140.089844 L 10.554688 140.941406 C 11.671875 140.324219 12.941406 139.996094 14.226562 139.996094 L 14.53125 139.996094 " fill-opacity="1" fill-rule="nonzero"/><path fill="#a7a9ac" d="M 23.292969 139.023438 L 18.910156 139.023438 L 18.910156 139.996094 L 23.292969 139.996094 L 23.292969 139.023438 " fill-opacity="1" fill-rule="nonzero"/><path fill="#a7a9ac" d="M 7.410156 151.765625 L 6.539062 152.195312 C 7.226562 153.589844 8.277344 154.773438 9.585938 155.617188 L 10.113281 154.804688 C 8.953125 154.054688 8.019531 153.003906 7.410156 151.765625 " fill-opacity="1" fill-rule="nonzero"/><path fill="#a7a9ac" d="M 13.996094 156.007812 L 13.96875 156.980469 C 14.054688 156.980469 14.140625 156.984375 14.226562 156.984375 L 18.363281 156.984375 L 18.363281 156.011719 L 14.226562 156.011719 C 14.148438 156.011719 14.074219 156.011719 13.996094 156.007812 " fill-opacity="1" fill-rule="nonzero"/><path fill="#a7a9ac" d="M 22.746094 156.984375 L 27.128906 156.984375 L 27.128906 156.011719 L 22.746094 156.011719 L 22.746094 156.984375 " fill-opacity="1" fill-rule="nonzero"/><path fill="#a7a9ac" d="M 31.507812 156.984375 L 35.890625 156.984375 L 35.890625 156.011719 L 31.507812 156.011719 L 31.507812 156.984375 " fill-opacity="1" fill-rule="nonzero"/><path fill="#a7a9ac" d="M 40.816406 139.023438 L 36.4375 139.023438 L 36.4375 139.996094 L 40.816406 139.996094 L 40.816406 139.023438 " fill-opacity="1" fill-rule="nonzero"/><path fill="#a7a9ac" d="M 32.054688 139.023438 L 27.675781 139.023438 L 27.675781 139.996094 L 32.054688 139.996094 L 32.054688 139.023438 " fill-opacity="1" fill-rule="nonzero"/><path fill="#a7a9ac" d="M 6.640625 147.574219 C 6.640625 146.242188 6.992188 144.933594 7.65625 143.789062 L 6.8125 143.300781 C 6.066406 144.59375 5.667969 146.070312 5.667969 147.574219 L 5.667969 147.730469 L 6.640625 147.730469 L 6.640625 147.574219 " fill-opacity="1" fill-rule="nonzero"/><g clip-path="url(#a623e711a3)"><path fill="#a7a9ac" d="M 136.664062 156.984375 L 141.046875 156.984375 L 141.046875 156.011719 L 136.664062 156.011719 L 136.664062 156.984375 " fill-opacity="1" fill-rule="nonzero"/></g><path fill="#a7a9ac" d="M 137.210938 139.023438 L 132.828125 139.023438 L 132.828125 139.996094 L 137.210938 139.996094 L 137.210938 139.023438 " fill-opacity="1" fill-rule="nonzero"/><path fill="#a7a9ac" d="M 127.902344 156.984375 L 132.28125 156.984375 L 132.28125 156.011719 L 127.902344 156.011719 L 127.902344 156.984375 " fill-opacity="1" fill-rule="nonzero"/><path fill="#a7a9ac" d="M 101.609375 156.984375 L 105.992188 156.984375 L 105.992188 156.011719 L 101.609375 156.011719 L 101.609375 156.984375 " fill-opacity="1" fill-rule="nonzero"/><path fill="#a7a9ac" d="M 93.394531 139.023438 L 89.015625 139.023438 L 89.015625 139.996094 L 93.394531 139.996094 L 93.394531 139.023438 " fill-opacity="1" fill-rule="nonzero"/><path fill="#a7a9ac" d="M 128.449219 139.023438 L 124.066406 139.023438 L 124.066406 139.996094 L 128.449219 139.996094 L 128.449219 139.023438 " fill-opacity="1" fill-rule="nonzero"/><path fill="#a7a9ac" d="M 102.160156 139.023438 L 97.777344 139.023438 L 97.777344 139.996094 L 102.160156 139.996094 L 102.160156 139.023438 " fill-opacity="1" fill-rule="nonzero"/><path fill="#a7a9ac" d="M 92.847656 156.984375 L 97.230469 156.984375 L 97.230469 156.011719 L 92.847656 156.011719 L 92.847656 156.984375 " fill-opacity="1" fill-rule="nonzero"/><path fill="#a7a9ac" d="M 110.921875 139.023438 L 106.542969 139.023438 L 106.542969 139.996094 L 110.921875 139.996094 L 110.921875 139.023438 " fill-opacity="1" fill-rule="nonzero"/><path fill="#a7a9ac" d="M 119.136719 156.984375 L 123.519531 156.984375 L 123.519531 156.011719 L 119.136719 156.011719 L 119.136719 156.984375 " fill-opacity="1" fill-rule="nonzero"/><path fill="#a7a9ac" d="M 110.375 156.984375 L 114.757812 156.984375 L 114.757812 156.011719 L 110.375 156.011719 L 110.375 156.984375 " fill-opacity="1" fill-rule="nonzero"/><path fill="#a7a9ac" d="M 119.683594 139.023438 L 115.304688 139.023438 L 115.304688 139.996094 L 119.683594 139.996094 L 119.683594 139.023438 " fill-opacity="1" fill-rule="nonzero"/><path fill="#afbc35" d="M 125.984375 151.789062 L 125.984375 148.195312 C 125.984375 146.332031 124.472656 144.824219 122.609375 144.824219 L 111.113281 144.824219 C 109.246094 144.824219 107.738281 146.332031 107.738281 148.195312 L 107.738281 151.789062 L 125.984375 151.789062 " fill-opacity="1" fill-rule="nonzero"/><path fill="#828c1c" d="M 114.195312 150.847656 C 114.195312 150.980469 114.304688 151.09375 114.441406 151.09375 L 116.089844 151.09375 C 116.226562 151.09375 116.339844 150.980469 116.339844 150.847656 C 116.339844 150.707031 116.226562 150.597656 116.089844 150.597656 L 114.441406 150.597656 C 114.304688 150.597656 114.195312 150.707031 114.195312 150.847656 " fill-opacity="1" fill-rule="nonzero"/><path fill="#828c1c" d="M 122.152344 150.847656 C 122.152344 150.980469 122.261719 151.09375 122.398438 151.09375 L 124.050781 151.09375 C 124.1875 151.09375 124.300781 150.980469 124.300781 150.847656 C 124.300781 150.707031 124.1875 150.597656 124.050781 150.597656 L 122.398438 150.597656 C 122.261719 150.597656 122.152344 150.707031 122.152344 150.847656 " fill-opacity="1" fill-rule="nonzero"/><path fill="#07858e" d="M 121.871094 150.101562 L 121.871094 146.507812 L 121.519531 146.507812 L 119.914062 150.101562 L 121.871094 150.101562 " fill-opacity="1" fill-rule="nonzero"/><path fill="#07858e" d="M 117.183594 146.507812 L 117.183594 150.101562 L 117.792969 150.101562 L 119.398438 146.507812 L 117.183594 146.507812 " fill-opacity="1" fill-rule="nonzero"/><path fill="#07858e" d="M 120.429688 146.507812 L 118.820312 150.101562 L 119.484375 150.101562 L 121.089844 146.507812 L 120.429688 146.507812 " fill-opacity="1" fill-rule="nonzero"/><path fill="#07858e" d="M 114.890625 146.507812 L 113.285156 150.101562 L 113.945312 150.101562 L 115.550781 146.507812 L 114.890625 146.507812 " fill-opacity="1" fill-rule="nonzero"/><path fill="#07858e" d="M 111.851562 146.507812 L 111.851562 150.101562 L 112.253906 150.101562 L 113.859375 146.507812 L 111.851562 146.507812 " fill-opacity="1" fill-rule="nonzero"/><path fill="#07858e" d="M 114.375 150.101562 L 116.539062 150.101562 L 116.539062 146.507812 L 115.980469 146.507812 L 114.375 150.101562 " fill-opacity="1" fill-rule="nonzero"/><path fill="#07858e" d="M 122.609375 146.507812 L 122.46875 146.507812 L 122.46875 150.101562 L 122.914062 150.101562 L 124.113281 147.425781 C 123.832031 146.882812 123.265625 146.507812 122.609375 146.507812 " fill-opacity="1" fill-rule="nonzero"/><path fill="#07858e" d="M 123.347656 150.101562 L 124.300781 150.101562 L 124.300781 148.195312 C 124.300781 148.128906 124.292969 148.066406 124.285156 148 L 123.347656 150.101562 " fill-opacity="1" fill-rule="nonzero"/><path fill="#07858e" d="M 111.253906 146.816406 L 109.789062 150.101562 L 111.253906 150.101562 Z M 111.253906 146.816406 " fill-opacity="1" fill-rule="nonzero"/><path fill="#07858e" d="M 109.425781 148.195312 L 109.425781 149.949219 L 110.957031 146.515625 C 110.101562 146.59375 109.425781 147.316406 109.425781 148.195312 " fill-opacity="1" fill-rule="nonzero"/><path fill="#ffffff" d="M 113.859375 146.507812 L 112.253906 150.101562 L 113.285156 150.101562 L 114.890625 146.507812 L 113.859375 146.507812 " fill-opacity="1" fill-rule="nonzero"/><path fill="#ffffff" d="M 115.550781 146.507812 L 113.945312 150.101562 L 114.375 150.101562 L 115.980469 146.507812 L 115.550781 146.507812 " fill-opacity="1" fill-rule="nonzero"/><path fill="#ffffff" d="M 119.398438 146.507812 L 117.792969 150.101562 L 118.820312 150.101562 L 120.429688 146.507812 L 119.398438 146.507812 " fill-opacity="1" fill-rule="nonzero"/><path fill="#ffffff" d="M 121.519531 146.507812 L 121.089844 146.507812 L 119.484375 150.101562 L 119.914062 150.101562 L 121.519531 146.507812 " fill-opacity="1" fill-rule="nonzero"/><path fill="#ffffff" d="M 124.113281 147.425781 L 122.914062 150.101562 L 123.347656 150.101562 L 124.285156 148 C 124.261719 147.796875 124.203125 147.601562 124.113281 147.425781 " fill-opacity="1" fill-rule="nonzero"/><path fill="#ffffff" d="M 111.253906 146.507812 L 111.113281 146.507812 C 111.058594 146.507812 111.007812 146.511719 110.957031 146.515625 L 109.425781 149.949219 L 109.425781 150.101562 L 109.789062 150.101562 L 111.253906 146.816406 L 111.253906 146.507812 " fill-opacity="1" fill-rule="nonzero"/><path fill="#828c1c" d="M 130.289062 154 C 130.289062 153.722656 130.515625 153.496094 130.792969 153.496094 L 131.132812 153.496094 C 130.554688 152.476562 129.460938 151.789062 128.203125 151.789062 L 105.480469 151.789062 C 104.222656 151.789062 103.128906 152.476562 102.546875 153.496094 L 103.050781 153.496094 C 103.328125 153.496094 103.554688 153.722656 103.554688 154 C 103.554688 154.277344 103.328125 154.503906 103.050781 154.503906 L 102.171875 154.503906 C 102.128906 154.714844 102.105469 154.9375 102.105469 155.160156 L 102.105469 155.992188 L 131.578125 155.992188 L 131.578125 155.160156 C 131.578125 154.9375 131.554688 154.714844 131.511719 154.503906 L 130.792969 154.503906 C 130.515625 154.503906 130.289062 154.277344 130.289062 154 " fill-opacity="1" fill-rule="nonzero"/><path fill="#ffffff" d="M 103.554688 154 C 103.554688 153.722656 103.328125 153.496094 103.050781 153.496094 L 102.546875 153.496094 C 102.371094 153.804688 102.242188 154.144531 102.171875 154.503906 L 103.050781 154.503906 C 103.328125 154.503906 103.554688 154.277344 103.554688 154 " fill-opacity="1" fill-rule="nonzero"/><path fill="#eb3118" d="M 130.792969 153.496094 C 130.515625 153.496094 130.289062 153.722656 130.289062 154 C 130.289062 154.277344 130.515625 154.503906 130.792969 154.503906 L 131.511719 154.503906 C 131.441406 154.144531 131.308594 153.804688 131.132812 153.496094 L 130.792969 153.496094 " fill-opacity="1" fill-rule="nonzero"/><path fill="#afbc35" d="M 132.667969 156.554688 C 132.667969 156.886719 132.398438 157.160156 132.0625 157.160156 L 101.574219 157.160156 C 101.238281 157.160156 100.96875 156.886719 100.96875 156.554688 C 100.96875 156.21875 101.238281 155.949219 101.574219 155.949219 L 132.0625 155.949219 C 132.398438 155.949219 132.667969 156.21875 132.667969 156.554688 " fill-opacity="1" fill-rule="nonzero"/><path fill="#231f20" d="M 110.511719 156.566406 C 110.511719 158.109375 109.257812 159.359375 107.714844 159.359375 C 106.171875 159.359375 104.921875 158.109375 104.921875 156.566406 C 104.921875 155.023438 106.171875 153.773438 107.714844 153.773438 C 109.257812 153.773438 110.511719 155.023438 110.511719 156.566406 " fill-opacity="1" fill-rule="nonzero"/><path fill="#414042" d="M 106.222656 156.566406 C 106.222656 155.742188 106.890625 155.074219 107.714844 155.074219 C 108.539062 155.074219 109.207031 155.742188 109.207031 156.566406 C 109.207031 157.390625 108.539062 158.058594 107.714844 158.058594 C 106.890625 158.058594 106.222656 157.390625 106.222656 156.566406 " fill-opacity="1" fill-rule="nonzero"/><path fill="#231f20" d="M 128.78125 156.566406 C 128.78125 158.109375 127.53125 159.359375 125.984375 159.359375 C 124.441406 159.359375 123.191406 158.109375 123.191406 156.566406 C 123.191406 155.023438 124.441406 153.773438 125.984375 153.773438 C 127.53125 153.773438 128.78125 155.023438 128.78125 156.566406 " fill-opacity="1" fill-rule="nonzero"/><path fill="#414042" d="M 124.496094 156.566406 C 124.496094 155.742188 125.164062 155.074219 125.984375 155.074219 C 126.808594 155.074219 127.480469 155.742188 127.480469 156.566406 C 127.480469 157.390625 126.808594 158.058594 125.984375 158.058594 C 125.164062 158.058594 124.496094 157.390625 124.496094 156.566406 " fill-opacity="1" fill-rule="nonzero"/><path fill="#f5da33" d="M 118.972656 39.945312 C 118.972656 43.796875 115.847656 46.921875 111.992188 46.921875 C 108.136719 46.921875 105.007812 43.796875 105.007812 39.945312 C 105.007812 36.09375 108.136719 32.96875 111.992188 32.96875 C 115.847656 32.96875 118.972656 36.09375 118.972656 39.945312 " fill-opacity="1" fill-rule="nonzero"/><path fill="#f9ef5a" d="M 116.019531 39.945312 C 116.019531 42.167969 114.21875 43.972656 111.988281 43.972656 C 109.761719 43.972656 107.957031 42.167969 107.957031 39.945312 C 107.957031 37.71875 109.761719 35.917969 111.988281 35.917969 C 114.21875 35.917969 116.019531 37.71875 116.019531 39.945312 " fill-opacity="1" fill-rule="nonzero"/><g clip-path="url(#fb385629ea)"><path fill="#d8d2ba" d="M 136.105469 47.644531 C 135.871094 47.644531 135.640625 47.667969 135.417969 47.714844 C 135.59375 47.140625 135.691406 46.53125 135.691406 45.902344 C 135.691406 42.453125 132.890625 39.65625 129.4375 39.65625 C 128.6875 39.65625 127.96875 39.796875 127.304688 40.039062 C 126.429688 37.050781 123.671875 34.863281 120.398438 34.863281 C 116.421875 34.863281 113.199219 38.082031 113.199219 42.054688 C 113.199219 42.359375 113.226562 42.65625 113.261719 42.949219 C 113.242188 42.949219 113.222656 42.949219 113.199219 42.949219 C 109.953125 42.949219 107.320312 45.578125 107.320312 48.824219 C 107.320312 52.066406 109.953125 54.695312 113.199219 54.695312 L 136.105469 54.695312 C 138.054688 54.695312 139.632812 53.117188 139.632812 51.171875 C 139.632812 49.222656 138.054688 47.644531 136.105469 47.644531 " fill-opacity="1" fill-rule="nonzero"/></g><path fill="#d8d2ba" d="M 43.457031 28.878906 C 43.242188 28.878906 43.035156 28.902344 42.835938 28.941406 C 42.992188 28.421875 43.078125 27.867188 43.078125 27.296875 C 43.078125 24.164062 40.539062 21.625 37.402344 21.625 C 36.722656 21.625 36.070312 21.753906 35.464844 21.972656 C 34.671875 19.257812 32.167969 17.273438 29.195312 17.273438 C 25.585938 17.273438 22.660156 20.195312 22.660156 23.800781 C 22.660156 24.078125 22.683594 24.347656 22.714844 24.617188 C 22.699219 24.617188 22.679688 24.613281 22.660156 24.613281 C 19.710938 24.613281 17.320312 27.003906 17.320312 29.945312 C 17.320312 32.890625 19.710938 35.28125 22.660156 35.28125 L 43.457031 35.28125 C 45.226562 35.28125 46.664062 33.847656 46.664062 32.078125 C 46.664062 30.3125 45.226562 28.878906 43.457031 28.878906 " fill-opacity="1" fill-rule="nonzero"/><path fill="#afbc35" d="M 64.5 152.96875 C 64.5 155.859375 62.152344 158.199219 59.261719 158.199219 L 51.863281 158.199219 C 48.96875 158.199219 46.625 155.859375 46.625 152.96875 L 46.625 137.433594 C 46.625 134.546875 48.96875 132.207031 51.863281 132.207031 L 59.261719 132.207031 C 62.152344 132.207031 64.5 134.546875 64.5 137.433594 L 64.5 152.96875 " fill-opacity="1" fill-rule="nonzero"/><path fill="#828c1c" d="M 54.027344 136.964844 C 56.027344 138.964844 55.496094 142.726562 55.496094 142.726562 C 55.496094 142.726562 51.730469 143.253906 49.730469 141.257812 C 47.734375 139.261719 48.261719 135.496094 48.261719 135.496094 C 48.261719 135.496094 52.03125 134.96875 54.027344 136.964844 " fill-opacity="1" fill-rule="nonzero"/><path fill="#828c1c" d="M 54.027344 149.945312 C 56.027344 151.945312 55.496094 155.707031 55.496094 155.707031 C 55.496094 155.707031 51.730469 156.234375 49.730469 154.238281 C 47.734375 152.242188 48.261719 148.476562 48.261719 148.476562 C 48.261719 148.476562 52.03125 147.949219 54.027344 149.945312 " fill-opacity="1" fill-rule="nonzero"/><path fill="#828c1c" d="M 57.097656 143.589844 C 55.097656 145.589844 55.625 149.351562 55.625 149.351562 C 55.625 149.351562 59.394531 149.878906 61.390625 147.882812 C 63.390625 145.886719 62.863281 142.121094 62.863281 142.121094 C 62.863281 142.121094 59.09375 141.59375 57.097656 143.589844 " fill-opacity="1" fill-rule="nonzero"/><g clip-path="url(#3041943ece)"><path fill="#b71a09" d="M 56.800781 167.0625 L 54.324219 167.0625 L 54.324219 139.886719 L 56.800781 139.886719 L 56.800781 167.0625 " fill-opacity="1" fill-rule="nonzero"/></g><path fill="#c1b99f" d="M 38.644531 32.105469 C 38.941406 32.105469 39.230469 32.144531 39.507812 32.214844 C 39.222656 31.378906 39.0625 30.492188 39.0625 29.558594 C 39.0625 24.984375 42.777344 21.273438 47.359375 21.273438 C 51.507812 21.273438 54.929688 24.316406 55.546875 28.285156 C 56.0625 28.128906 56.609375 28.042969 57.175781 28.042969 C 60.242188 28.042969 62.726562 30.523438 62.726562 33.585938 C 62.726562 36.652344 60.242188 39.132812 57.175781 39.132812 L 38.644531 39.132812 C 36.699219 39.132812 35.125 37.5625 35.125 35.621094 C 35.125 33.679688 36.699219 32.105469 38.644531 32.105469 " fill-opacity="1" fill-rule="nonzero"/><path fill="#d8d2ba" d="M 93.027344 18.902344 C 93.273438 18.902344 93.507812 18.933594 93.734375 18.992188 C 93.503906 18.308594 93.375 17.578125 93.375 16.816406 C 93.375 13.074219 96.414062 10.039062 100.160156 10.039062 C 103.554688 10.039062 106.355469 12.527344 106.859375 15.777344 C 107.277344 15.648438 107.726562 15.578125 108.191406 15.578125 C 110.699219 15.578125 112.734375 17.609375 112.734375 20.113281 C 112.734375 22.621094 110.699219 24.652344 108.191406 24.652344 L 93.027344 24.652344 C 91.4375 24.652344 90.148438 23.363281 90.148438 21.777344 C 90.148438 20.1875 91.4375 18.902344 93.027344 18.902344 " fill-opacity="1" fill-rule="nonzero"/><g clip-path="url(#72da0a657b)"><path fill="#bd3737" d="M 38.128906 48.949219 C 39.367188 48.949219 40.371094 49.945312 40.371094 51.171875 C 40.371094 52.476562 39.015625 53.96875 38.128906 54.914062 C 37.246094 53.96875 35.890625 52.476562 35.890625 51.171875 C 35.890625 49.945312 36.894531 48.949219 38.128906 48.949219 Z M 38.128906 49.886719 C 37.414062 49.886719 36.835938 50.460938 36.835938 51.171875 C 36.835938 51.882812 37.414062 52.457031 38.128906 52.457031 C 38.847656 52.457031 39.425781 51.882812 39.425781 51.171875 C 39.425781 50.460938 38.847656 49.886719 38.128906 49.886719 Z M 38.128906 49.886719 " fill-opacity="1" fill-rule="evenodd"/></g><g clip-path="url(#cfe56def16)"><path fill="#a41e1e" d="M 38.957031 49.105469 C 39.785156 49.433594 40.371094 50.234375 40.371094 51.171875 C 40.371094 52.476562 39.015625 53.96875 38.128906 54.914062 C 37.960938 54.734375 37.777344 54.535156 37.589844 54.320312 C 38.414062 53.886719 38.859375 53.027344 39.050781 52.078125 C 39.28125 51.84375 39.425781 51.523438 39.425781 51.171875 C 39.425781 50.875 39.324219 50.605469 39.15625 50.386719 C 39.128906 49.929688 39.058594 49.496094 38.960938 49.128906 C 38.960938 49.121094 38.957031 49.113281 38.957031 49.105469 Z M 38.957031 49.105469 " fill-opacity="1" fill-rule="evenodd"/></g><path fill="#a41e1e" d="M 38.128906 52.734375 C 39 52.734375 39.707031 52.027344 39.707031 51.167969 C 39.707031 50.304688 39 49.601562 38.128906 49.601562 C 37.261719 49.601562 36.550781 50.304688 36.550781 51.167969 C 36.550781 52.027344 37.261719 52.734375 38.128906 52.734375 Z M 38.128906 52.734375 " fill-opacity="1" fill-rule="evenodd"/><path fill="#ffffff" d="M 38.128906 52.613281 C 38.933594 52.613281 39.589844 51.964844 39.589844 51.167969 C 39.589844 50.371094 38.933594 49.71875 38.128906 49.71875 C 37.328125 49.71875 36.671875 50.371094 36.671875 51.167969 C 36.671875 51.964844 37.328125 52.613281 38.128906 52.613281 Z M 38.128906 52.613281 " fill-opacity="1" fill-rule="evenodd"/><path fill="#e6e6e6" d="M 38.90625 49.941406 C 39.316406 50.195312 39.589844 50.648438 39.589844 51.167969 C 39.589844 51.964844 38.9375 52.613281 38.128906 52.613281 C 37.550781 52.613281 37.050781 52.28125 36.816406 51.796875 C 38.476562 52.574219 39.578125 50.960938 38.90625 49.941406 Z M 38.90625 49.941406 " fill-opacity="1" fill-rule="evenodd"/><path fill="#2073b7" d="M 37.691406 50.230469 L 38.570312 50.230469 L 38.570312 50.730469 L 39.074219 50.730469 L 39.074219 51.601562 L 38.570312 51.601562 L 38.570312 52.105469 L 37.691406 52.105469 L 37.691406 51.601562 L 37.183594 51.601562 L 37.183594 50.730469 L 37.691406 50.730469 Z M 37.691406 50.230469 " fill-opacity="1" fill-rule="evenodd"/><g clip-path="url(#cc6b5001f3)"><path fill="#ed1c24" d="M 74.488281 81.0625 C 74.488281 82.015625 72.738281 84.542969 72.738281 84.542969 C 72.738281 84.542969 70.984375 82.015625 70.984375 81.0625 C 70.984375 80.105469 71.769531 79.332031 72.738281 79.332031 C 73.703125 79.332031 74.488281 80.105469 74.488281 81.0625 " fill-opacity="1" fill-rule="nonzero"/></g><g clip-path="url(#187dcf23dc)"><path fill="#ffffff" d="M 73.777344 80.371094 C 74.601562 81.652344 73.226562 83.011719 71.925781 82.199219 C 71.847656 82.148438 71.746094 82.046875 71.695312 81.96875 C 70.871094 80.683594 72.246094 79.324219 73.546875 80.140625 C 73.625 80.1875 73.726562 80.292969 73.777344 80.371094 " fill-opacity="1" fill-rule="nonzero"/></g><path fill="#1a1a1a" d="M 72.332031 80.40625 C 72.355469 80.335938 72.390625 80.277344 72.429688 80.222656 C 72.515625 80.117188 72.621094 80.0625 72.738281 80.0625 C 72.851562 80.0625 72.957031 80.117188 73.042969 80.222656 C 73.082031 80.277344 73.117188 80.335938 73.140625 80.40625 C 73.160156 80.472656 73.175781 80.539062 73.175781 80.609375 L 72.296875 80.609375 C 72.300781 80.539062 72.3125 80.472656 72.332031 80.40625 Z M 73.347656 80.609375 L 73.238281 80.609375 C 73.226562 80.273438 73.007812 80.003906 72.738281 80.003906 C 72.464844 80.003906 72.246094 80.273438 72.234375 80.609375 L 72.128906 80.609375 C 72.058594 80.609375 72.007812 80.664062 72.007812 80.730469 L 72.007812 81.933594 C 72.007812 82 72.058594 82.054688 72.128906 82.054688 L 73.347656 82.054688 C 73.414062 82.054688 73.46875 82 73.46875 81.933594 L 73.46875 80.730469 C 73.46875 80.664062 73.414062 80.609375 73.347656 80.609375 " fill-opacity="1" fill-rule="nonzero"/><path fill="#ffffff" d="M 72.339844 80.808594 C 72.367188 80.855469 72.316406 80.90625 72.269531 80.875 C 72.265625 80.875 72.265625 80.871094 72.261719 80.867188 C 72.230469 80.820312 72.28125 80.773438 72.328125 80.800781 C 72.332031 80.804688 72.335938 80.804688 72.339844 80.808594 " fill-opacity="1" fill-rule="nonzero"/><path fill="#ffffff" d="M 73.210938 80.808594 C 73.242188 80.855469 73.191406 80.90625 73.144531 80.875 C 73.140625 80.875 73.136719 80.871094 73.136719 80.867188 C 73.105469 80.820312 73.15625 80.773438 73.203125 80.800781 C 73.207031 80.804688 73.210938 80.804688 73.210938 80.808594 " fill-opacity="1" fill-rule="nonzero"/><g clip-path="url(#5aa2f9d11f)"><path fill="#57c492" d="M 119.679688 123.847656 C 119.015625 123.847656 118.480469 123.316406 118.480469 122.660156 C 118.480469 122.007812 119.015625 121.476562 119.679688 121.476562 C 120.34375 121.476562 120.878906 122.007812 120.878906 122.660156 C 120.878906 123.316406 120.34375 123.847656 119.679688 123.847656 Z M 119.679688 121.191406 C 118.855469 121.191406 118.1875 121.847656 118.1875 122.660156 C 118.1875 123.964844 119.679688 124.921875 119.679688 124.921875 C 119.679688 124.921875 121.171875 123.964844 121.171875 122.660156 C 121.171875 121.847656 120.503906 121.191406 119.679688 121.191406 " fill-opacity="1" fill-rule="nonzero"/></g><g clip-path="url(#7491f56da6)"><path fill="#57c492" d="M 120.1875 122.875 C 120.136719 122.875 120.035156 122.875 120.035156 122.792969 C 120.035156 122.722656 120.117188 122.640625 120.1875 122.640625 C 120.261719 122.640625 120.316406 122.699219 120.316406 122.769531 C 120.316406 122.835938 120.269531 122.875 120.1875 122.875 Z M 119.9375 122.976562 C 119.9375 122.984375 119.929688 122.992188 119.921875 122.992188 L 119.4375 122.992188 C 119.429688 122.992188 119.421875 122.984375 119.421875 122.976562 L 119.421875 122.859375 C 119.421875 122.851562 119.429688 122.84375 119.4375 122.84375 L 119.921875 122.84375 C 119.929688 122.84375 119.9375 122.851562 119.9375 122.859375 Z M 119.171875 122.875 C 119.089844 122.875 119.039062 122.835938 119.039062 122.769531 C 119.039062 122.699219 119.097656 122.640625 119.171875 122.640625 C 119.242188 122.640625 119.324219 122.722656 119.324219 122.792969 C 119.324219 122.875 119.21875 122.875 119.171875 122.875 Z M 119.273438 122.296875 C 119.292969 122.253906 119.351562 122.214844 119.398438 122.214844 L 119.960938 122.214844 C 120.007812 122.214844 120.066406 122.253906 120.085938 122.296875 L 120.164062 122.480469 C 120.042969 122.453125 119.878906 122.4375 119.679688 122.4375 C 119.480469 122.4375 119.316406 122.453125 119.195312 122.480469 Z M 120.449219 122.71875 C 120.449219 122.632812 120.394531 122.566406 120.285156 122.519531 L 120.367188 122.511719 C 120.375 122.507812 120.382812 122.503906 120.386719 122.5 C 120.390625 122.492188 120.394531 122.484375 120.394531 122.476562 L 120.390625 122.429688 C 120.386719 122.414062 120.375 122.402344 120.355469 122.402344 L 120.183594 122.402344 L 120.132812 122.277344 C 120.105469 122.214844 120.03125 122.167969 119.960938 122.167969 L 119.398438 122.167969 C 119.328125 122.167969 119.253906 122.214844 119.226562 122.277344 L 119.175781 122.402344 L 119.003906 122.402344 C 118.984375 122.402344 118.972656 122.414062 118.96875 122.429688 L 118.964844 122.476562 C 118.964844 122.484375 118.964844 122.492188 118.972656 122.5 C 118.976562 122.503906 118.984375 122.507812 118.992188 122.511719 L 119.074219 122.519531 C 118.964844 122.566406 118.910156 122.632812 118.910156 122.71875 L 118.910156 122.734375 C 118.910156 122.8125 118.910156 122.890625 118.972656 122.957031 C 118.980469 122.960938 118.988281 122.96875 118.996094 122.976562 L 118.996094 123.128906 C 118.996094 123.15625 119.015625 123.175781 119.042969 123.175781 L 119.253906 123.175781 C 119.277344 123.175781 119.300781 123.15625 119.300781 123.128906 L 119.300781 123.070312 C 119.402344 123.082031 119.527344 123.085938 119.679688 123.085938 C 119.832031 123.085938 119.957031 123.082031 120.058594 123.070312 L 120.058594 123.128906 C 120.058594 123.15625 120.082031 123.175781 120.105469 123.175781 L 120.316406 123.175781 C 120.34375 123.175781 120.363281 123.15625 120.363281 123.128906 L 120.363281 122.976562 C 120.371094 122.96875 120.378906 122.960938 120.386719 122.957031 C 120.449219 122.890625 120.449219 122.8125 120.449219 122.734375 L 120.449219 122.71875 " fill-opacity="1" fill-rule="nonzero"/></g></svg>