<svg width="12" height="11" viewBox="0 0 12 11" fill="none" xmlns="http://www.w3.org/2000/svg">
<g clip-path="url(#clip0_167_500)">
<path d="M10.8076 0.300781C10.693 0.186198 10.5552 0.128906 10.394 0.128906C10.2329 0.128906 10.0951 0.186198 9.98047 0.300781L0.817383 9.47461C0.695638 9.58919 0.634766 9.72705 0.634766 9.88818C0.634766 10.0493 0.695638 10.1872 0.817383 10.3018C0.931966 10.4163 1.06982 10.4736 1.23096 10.4736C1.39209 10.4736 1.52995 10.4163 1.64453 10.3018L10.8076 1.13867C10.9294 1.02409 10.9902 0.88444 10.9902 0.719727C10.9902 0.555013 10.9294 0.415364 10.8076 0.300781ZM10.9902 0.719727C10.9902 0.555013 10.9312 0.415364 10.813 0.300781C10.6948 0.186198 10.557 0.128906 10.3994 0.128906H3.6748C3.51009 0.128906 3.37044 0.186198 3.25586 0.300781C3.14128 0.415364 3.08398 0.555013 3.08398 0.719727C3.08398 0.88444 3.14128 1.02409 3.25586 1.13867C3.37044 1.25325 3.51009 1.31055 3.6748 1.31055H9.80859V7.44434C9.80859 7.60905 9.86589 7.7487 9.98047 7.86328C10.0951 7.97786 10.2347 8.03516 10.3994 8.03516C10.557 8.03516 10.6948 7.97786 10.813 7.86328C10.9312 7.7487 10.9902 7.60905 10.9902 7.44434V0.719727Z" fill="white"/>
</g>
<defs>
<clipPath id="clip0_167_500">
<rect width="11" height="11" fill="white" transform="matrix(1 0 0 -1 0.634766 11)"/>
</clipPath>
</defs>
</svg>
