<svg width="26" height="25" viewBox="0 0 26 25" fill="none" xmlns="http://www.w3.org/2000/svg">
<rect x="0.0703125" width="25" height="25" rx="12.5" fill="#EDF1F9"/>
<g clip-path="url(#clip0_282_3801)">
<path d="M18.3753 17.7126L18.1707 17.2295C17.7335 17.6126 17.2035 17.8921 16.6191 18.0292L16.9946 18.5178C17.146 18.7149 17.3849 18.8326 17.6335 18.8326C17.9044 18.8326 18.1555 18.6977 18.3052 18.4718C18.4548 18.2459 18.481 17.9621 18.3753 17.7126Z" fill="#A1ABC9"/>
<path d="M6.96987 17.2295L6.76523 17.7126C6.65955 17.9621 6.68578 18.2459 6.83541 18.4718C6.98503 18.6977 7.23615 18.8325 7.50712 18.8325C7.75569 18.8325 7.99449 18.7149 8.14602 18.5178L8.52145 18.0291C7.93708 17.8921 7.40703 17.6126 6.96987 17.2295Z" fill="#A1ABC9"/>
<path d="M10.7202 7.52994H10.6785C10.5757 6.76164 9.91645 6.16699 9.12048 6.16699H8.76973C7.90269 6.16699 7.19727 6.87239 7.19727 7.73946V11.0331H7.96084V7.73943C7.96084 7.29342 8.32372 6.93054 8.76973 6.93054H9.12048C9.49405 6.93054 9.80912 7.18516 9.9017 7.52991H9.84002C9.23263 7.52991 8.73848 8.02406 8.73848 8.63146V9.27552C8.73848 9.47971 8.89892 9.64596 9.10055 9.6563C9.10712 9.65663 9.1136 9.65729 9.12025 9.65729H11.4399C11.6508 9.65729 11.8217 9.48636 11.8217 9.27552V8.63148C11.8217 8.02409 11.3276 7.52994 10.7202 7.52994Z" fill="#A1ABC9"/>
<path d="M6.49805 14.0293V14.5138C6.49805 16.0835 7.77504 17.3605 9.34472 17.3605H15.7942C17.3638 17.3605 18.6408 16.0835 18.6408 14.5138V14.0293H6.49805Z" fill="#A1ABC9"/>
<path d="M18.5211 12.1621H6.61951C6.31668 12.1621 6.07031 12.4085 6.07031 12.7114C6.07031 13.0142 6.31668 13.2606 6.61951 13.2606H18.5211C18.8239 13.2606 19.0703 13.0142 19.0703 12.7114C19.0703 12.4085 18.8239 12.1621 18.5211 12.1621Z" fill="#A1ABC9"/>
</g>
<defs>
<clipPath id="clip0_282_3801">
<rect width="13" height="13" fill="white" transform="translate(6.07031 6)"/>
</clipPath>
</defs>
</svg>
