<svg width="25" height="25" viewBox="0 0 25 25" fill="none" xmlns="http://www.w3.org/2000/svg">
<rect width="25" height="25" rx="12.5" fill="#EDF1F9"/>
<g clip-path="url(#clip0_282_3790)">
<path d="M7.3548 11.1455H8.70896C8.62555 11.1455 8.54699 11.107 8.49555 11.0415C8.44408 10.976 8.42621 10.8904 8.44627 10.8091L8.61473 10.1358C8.7052 9.77347 9.02964 9.52051 9.40286 9.52051H11.1465C11.5945 9.52051 11.959 9.88504 11.959 10.333V10.8747C11.959 11.0242 11.8376 11.1455 11.6881 11.1455H13.3131C13.1636 11.1455 13.0423 11.0242 13.0423 10.8747V10.333C13.0423 9.88504 13.4068 9.52051 13.8548 9.52051H15.5984C15.9716 9.52051 16.2961 9.77347 16.3866 10.1358L16.555 10.8091C16.5756 10.8898 16.5572 10.976 16.5057 11.0415C16.4543 11.107 16.3757 11.1455 16.2923 11.1455H17.6465C17.796 11.1455 17.9173 11.0242 17.9173 10.8747V9.24967C17.9173 8.50326 17.3096 7.89551 16.5632 7.89551H8.43814C7.69173 7.89551 7.08398 8.50326 7.08398 9.24967V10.8747C7.08398 11.0242 7.2053 11.1455 7.3548 11.1455Z" fill="#A1ABC9"/>
<path d="M17.6458 11.6875H7.35416C6.60775 11.6875 6 12.2953 6 13.0417V16.8333C6 16.9828 6.12134 17.1042 6.27084 17.1042C6.42034 17.1042 6.54168 16.9828 6.54168 16.8333V16.0208H18.4583V16.8333C18.4583 16.9828 18.5797 17.1042 18.7292 17.1042C18.8787 17.1042 19 16.9828 19 16.8333V13.0417C19 12.2953 18.3923 11.6875 17.6458 11.6875ZM18.4583 15.4792H6.54166V14.9375H18.4583V15.4792H18.4583Z" fill="#A1ABC9"/>
</g>
<defs>
<clipPath id="clip0_282_3790">
<rect width="13" height="13" fill="white" transform="translate(6 6)"/>
</clipPath>
</defs>
</svg>
