<svg width="20" height="21" viewBox="0 0 20 21" fill="none" xmlns="http://www.w3.org/2000/svg">
<path fill-rule="evenodd" clip-rule="evenodd" d="M4.375 10.5C4.375 10.1548 4.65482 9.875 5 9.875H15C15.3452 9.875 15.625 10.1548 15.625 10.5C15.625 10.8452 15.3452 11.125 15 11.125H5C4.65482 11.125 4.375 10.8452 4.375 10.5Z" fill="#141414"/>
<path fill-rule="evenodd" clip-rule="evenodd" d="M1.25 6.75C1.25 6.40482 1.52982 6.125 1.875 6.125H18.125C18.4702 6.125 18.75 6.40482 18.75 6.75C18.75 7.09518 18.4702 7.375 18.125 7.375H1.875C1.52982 7.375 1.25 7.09518 1.25 6.75Z" fill="#141414"/>
<path fill-rule="evenodd" clip-rule="evenodd" d="M7.5 14.25C7.5 13.9048 7.77982 13.625 8.125 13.625H11.875C12.2202 13.625 12.5 13.9048 12.5 14.25C12.5 14.5952 12.2202 14.875 11.875 14.875H8.125C7.77982 14.875 7.5 14.5952 7.5 14.25Z" fill="#141414"/>
</svg>
