<svg width="60" height="60" viewBox="0 0 60 60" fill="none" xmlns="http://www.w3.org/2000/svg">
<g clip-path="url(#clip0_152_1819)">
<path d="M24.8863 38.0105C24.5263 38.2805 23.9863 38.1005 23.7163 37.7405C23.5363 37.4705 23.5363 37.1105 23.7163 36.8405L27.7663 30.5405C27.9463 30.1805 27.9463 29.8205 27.7663 29.4605L23.7163 23.1605C23.4463 22.8005 23.5363 22.2605 23.9863 21.9905C24.2563 21.8105 24.6163 21.8105 24.8863 21.9905L35.7763 28.9205C36.4063 29.2805 36.5863 30.0905 36.1363 30.7205C36.0463 30.9005 35.8663 30.9905 35.7763 31.0805L24.8863 38.0105Z" fill="white"/>
</g>
<rect x="2" y="2" width="56" height="56" rx="28" stroke="white" stroke-width="4"/>
<defs>
<clipPath id="clip0_152_1819">
<rect width="18" height="18" fill="white" transform="translate(21 21)"/>
</clipPath>
</defs>
</svg>
