<svg width="60" height="61" viewBox="0 0 60 61" fill="none" xmlns="http://www.w3.org/2000/svg">
<g clip-path="url(#clip0_152_1846)">
<path d="M35.0566 22.88C35.4166 22.61 35.9566 22.79 36.2266 23.15C36.4066 23.42 36.4066 23.78 36.2266 24.05L32.1766 30.35C31.9966 30.71 31.9966 31.07 32.1766 31.43L36.2266 37.73C36.4966 38.09 36.4066 38.63 35.9566 38.9C35.6866 39.08 35.3266 39.08 35.0566 38.9L24.1666 31.97C23.5366 31.61 23.3566 30.8 23.8066 30.17C23.8966 29.99 24.0766 29.9 24.1666 29.81L35.0566 22.88Z" fill="white"/>
</g>
<rect x="2" y="2.88965" width="56" height="56" rx="28" stroke="white" stroke-width="4"/>
<defs>
<clipPath id="clip0_152_1846">
<rect width="18" height="18" fill="white" transform="translate(21 21.8896)"/>
</clipPath>
</defs>
</svg>
