<svg width="26" height="25" viewBox="0 0 26 25" fill="none" xmlns="http://www.w3.org/2000/svg">
<rect x="0.259766" width="25" height="25" rx="12.5" fill="#EDF1F9"/>
<g clip-path="url(#clip0_282_3822)">
<path d="M17.1328 10.373L16.5941 10.9116L17.7975 12.115H14.1756C14.0402 11.6121 13.6435 11.2154 13.1406 11.08V7.45812L14.3482 8.66563L14.8868 8.12701L12.7598 6L10.6328 8.12701L11.1714 8.66563L12.3789 7.45812V11.08C11.876 11.2154 11.4793 11.6121 11.3439 12.115H7.722L8.9254 10.9116L8.38678 10.373L6.25977 12.5L8.38678 14.627L8.9254 14.0884L7.7137 12.8767H11.3439C11.4793 13.3796 11.876 13.7763 12.3789 13.9117V17.5419L11.1713 16.3343L10.6327 16.873L12.7597 19L14.8868 16.873L14.3481 16.3343L13.1406 17.5419V13.9117C13.6435 13.7763 14.0402 13.3796 14.1756 12.8767H17.8058L16.5941 14.0884L17.1327 14.627L19.2597 12.5L17.1328 10.373Z" fill="#A1ABC9"/>
</g>
<defs>
<clipPath id="clip0_282_3822">
<rect width="13" height="13" fill="white" transform="translate(6.25977 6)"/>
</clipPath>
</defs>
</svg>
